<svg xmlns="http://www.w3.org/2000/svg" viewBox="0 0 177.48 34.84"><defs><style>.cls-1{fill:#231f20;}.cls-2{fill:#f5b335;}.cls-3{fill:#ee7623;}.cls-4{fill:#416ba9;}.cls-5{fill:#00945e;}.cls-6,.cls-7{fill:none;}.cls-6{stroke:#bcbec0;stroke-miterlimit:10;stroke-width:0.38px;}</style></defs><g id="Layer_2" data-name="Layer 2"><g id="Layer_1-2" data-name="Layer 1"><path class="cls-1" d="M34.16,4.46h1.09V6.74h0c.61-1.57,1.41-2.49,3.16-2.42V5.51C36.3,5.4,35.35,7,35.35,9v5.2H34.16Z"/><path class="cls-1" d="M39.89,9.66c0,1.74.93,3.83,3.22,3.83A3,3,0,0,0,46.17,11h1.19c-.51,2.21-1.79,3.5-4.25,3.5-3.1,0-4.41-2.39-4.41-5.17,0-2.57,1.31-5.16,4.41-5.16S47.5,6.91,47.4,9.66Zm6.32-1c-.06-1.79-1.17-3.48-3.1-3.48s-3,1.71-3.22,3.48Z"/><path class="cls-1" d="M54.8,7.31a2.25,2.25,0,0,0-2.55-2.14c-1.06,0-2.31.42-2.31,1.69,0,1.06,1.21,1.43,2,1.64l1.59.36c1.36.21,2.78,1,2.78,2.71,0,2.11-2.1,2.93-3.91,2.93-2.27,0-3.82-1.06-4-3.44H49.6a2.56,2.56,0,0,0,2.87,2.43c1.12,0,2.67-.49,2.67-1.85,0-1.13-1.06-1.51-2.14-1.78l-1.53-.34c-1.55-.41-2.72-.94-2.72-2.61,0-2,2-2.74,3.67-2.74,1.94,0,3.49,1,3.57,3.14Z"/><path class="cls-1" d="M66.73,9.33c0,2.8-1.62,5.17-4.61,5.17s-4.61-2.37-4.61-5.17,1.62-5.16,4.61-5.16S66.73,6.54,66.73,9.33Zm-8,0c0,2.08,1.13,4.16,3.42,4.16s3.42-2.08,3.42-4.16-1.13-4.16-3.42-4.16S58.7,7.25,58.7,9.33Z"/><path class="cls-1" d="M76.36,14.21h-1.1V12.45h0a3.64,3.64,0,0,1-3.37,2.05c-2.46,0-3.42-1.44-3.42-3.71V4.46h1.19v6.35c.06,1.76.72,2.68,2.61,2.68,2,0,2.93-1.92,2.93-3.91V4.46h1.19Z"/><path class="cls-1" d="M78.56,4.46h1.09V6.74h0c.61-1.57,1.41-2.49,3.16-2.42V5.51C80.7,5.4,79.75,7,79.75,9v5.2H78.56Z"/><path class="cls-1" d="M90.48,7.52a2.65,2.65,0,0,0-2.76-2.35c-2.29,0-3.42,2.08-3.42,4.16s1.13,4.16,3.42,4.16a2.9,2.9,0,0,0,2.83-2.77h1.2a4,4,0,0,1-4,3.78c-3,0-4.62-2.37-4.62-5.17s1.63-5.16,4.62-5.16a3.65,3.65,0,0,1,4,3.35Z"/><path class="cls-1" d="M93.64,1.24h1.19V3.15H93.64Zm0,3.22h1.19v9.75H93.64Z"/><path class="cls-1" d="M97.05,4.46h1.19V6.14h0a3.32,3.32,0,0,1,3.12-2c2.75,0,3.58,1.44,3.58,3.77v6.27h-1.19V8.12c0-1.68-.55-2.95-2.48-2.95s-3,1.44-3.06,3.35v5.69H97.05Z"/><path class="cls-1" d="M115.15,13.42c0,2.91-1.14,4.69-4.33,4.69-1.95,0-3.88-.87-4-2.95H108c.27,1.44,1.53,1.95,2.86,1.95,2.19,0,3.14-1.31,3.14-3.69V12.1h0a3.38,3.38,0,0,1-3.1,2c-3.12,0-4.41-2.23-4.41-5s1.59-4.92,4.41-4.92a3.45,3.45,0,0,1,3.1,2h0V4.46h1.19ZM114,9.22c0-1.91-.89-4.05-3.14-4.05s-3.22,2-3.22,4.05,1,3.88,3.22,3.88S114,11.21,114,9.22Z"/><path class="cls-1" d="M122.22,9.66c0,1.74.92,3.83,3.21,3.83A3,3,0,0,0,128.49,11h1.19c-.51,2.21-1.79,3.5-4.25,3.5-3.1,0-4.41-2.39-4.41-5.17,0-2.57,1.31-5.16,4.41-5.16s4.39,2.74,4.29,5.49Zm6.31-1c-.06-1.79-1.17-3.48-3.1-3.48s-3,1.71-3.21,3.48Z"/><path class="cls-1" d="M139.86,14.21h-1.1V12.36h0a3.86,3.86,0,0,1-3.48,2.14c-3,0-4.39-2.4-4.39-5.17s1.42-5.16,4.39-5.16a3.48,3.48,0,0,1,3.38,2.14h0V1.24h1.19Zm-4.61-.72c2.53,0,3.42-2.13,3.42-4.16s-.89-4.16-3.42-4.16c-2.27,0-3.2,2.14-3.2,4.16S133,13.49,135.25,13.49Z"/><path class="cls-1" d="M149.8,13.42c0,2.91-1.14,4.69-4.33,4.69-1.95,0-3.88-.87-4.05-2.95h1.19c.26,1.44,1.53,1.95,2.86,1.95,2.19,0,3.13-1.31,3.13-3.69V12.1h0a3.39,3.39,0,0,1-3.1,2c-3.12,0-4.41-2.23-4.41-5s1.59-4.92,4.41-4.92a3.45,3.45,0,0,1,3.1,2h0V4.46h1.2Zm-1.2-4.2c0-1.91-.88-4.05-3.13-4.05s-3.22,2-3.22,4.05,1,3.88,3.22,3.88S148.6,11.21,148.6,9.22Z"/><path class="cls-1" d="M152.19,9.66c0,1.74.92,3.83,3.21,3.83A3,3,0,0,0,158.46,11h1.19c-.51,2.21-1.79,3.5-4.25,3.5-3.1,0-4.41-2.39-4.41-5.17,0-2.57,1.31-5.16,4.41-5.16s4.39,2.74,4.29,5.49Zm6.31-1c-.06-1.79-1.17-3.48-3.1-3.48s-3,1.71-3.21,3.48Z"/><path class="cls-2" d="M5.15,10.15c-.25.73-1.6.92-3,.43S-.21,9.11,0,8.39s1.6-.92,3-.43,2.35,1.47,2.1,2.19"/><path class="cls-3" d="M10.76,7.41c-.61,1-2.67.83-4.59-.36s-3-3-2.38-3.94,2.67-.83,4.59.36,3,3,2.38,3.94"/><path class="cls-4" d="M27.09,11.71c-1.43.59-3.52-1.2-4.66-4s-.9-5.53.53-6.12,3.52,1.2,4.66,4,.9,5.53-.53,6.11"/><path class="cls-5" d="M18.77,7.75c-1.05.85-3.25-.13-4.9-2.18S11.74,1.15,12.79.3s3.26.14,4.9,2.2,2.14,4.41,1.08,5.25"/><line class="cls-6" x1="159.7" y1="23.32" x2="138.67" y2="23.32"/><line class="cls-6" x1="55.19" y1="23.32" x2="34.16" y2="23.32"/><path class="cls-1" d="M60.78,20.81h.42l1.6,3.77h-.52l-.38-.92H60l-.39.92h-.51Zm.2.58h0l-.78,1.85h1.54Z"/><path class="cls-1" d="M67.59,24.68a2.06,2.06,0,0,1-.79-.15,2,2,0,0,1-.62-.41,1.95,1.95,0,0,1-.55-1.42,2,2,0,0,1,.14-.79,2.08,2.08,0,0,1,.41-.63,2,2,0,0,1,.62-.41,2.06,2.06,0,0,1,.79-.15,2,2,0,0,1,.79.15,1.82,1.82,0,0,1,1,1,2.22,2.22,0,0,1,.14.79,2.3,2.3,0,0,1-.14.79,1.82,1.82,0,0,1-1,1A2,2,0,0,1,67.59,24.68Zm0-.42a1.54,1.54,0,0,0,.61-.12,1.32,1.32,0,0,0,.47-.34,1.44,1.44,0,0,0,.3-.49,1.57,1.57,0,0,0,.11-.61,1.54,1.54,0,0,0-.11-.61,1.48,1.48,0,0,0-.3-.5,1.43,1.43,0,0,0-.47-.33,1.55,1.55,0,0,0-.61-.13,1.47,1.47,0,0,0-.6.13,1.43,1.43,0,0,0-.47.33,1.69,1.69,0,0,0-.31.5,1.74,1.74,0,0,0-.11.61,1.78,1.78,0,0,0,.11.61,1.64,1.64,0,0,0,.31.49,1.32,1.32,0,0,0,.47.34A1.46,1.46,0,0,0,67.59,24.26Z"/><path class="cls-1" d="M70.81,20.81h.56l2.19,3.13h0V20.81H74v3.77h-.56l-2.18-3.13h0v3.13h-.45Z"/><path class="cls-1" d="M75.48,20.81h2.37v.42H75.93v1.18h1.79v.42H75.93v1.34h2v.41H75.48Z"/><path class="cls-1" d="M79.1,20.81h1.44a1.9,1.9,0,0,1,.4.05,2.41,2.41,0,0,1,.41.13,2.34,2.34,0,0,1,.39.25,1.37,1.37,0,0,1,.33.35,1.58,1.58,0,0,1,.23.49,2,2,0,0,1,.09.62,2,2,0,0,1-.09.62,1.53,1.53,0,0,1-.23.48,1.42,1.42,0,0,1-.33.36,1.78,1.78,0,0,1-.39.24,2.49,2.49,0,0,1-.41.14,1.87,1.87,0,0,1-.4,0H79.1Zm.44,3.36h.85a1.89,1.89,0,0,0,.6-.09,1.24,1.24,0,0,0,.48-.26,1.19,1.19,0,0,0,.32-.46,1.62,1.62,0,0,0,.12-.66,1.71,1.71,0,0,0-.12-.67,1.23,1.23,0,0,0-.32-.45,1.12,1.12,0,0,0-.48-.26,1.89,1.89,0,0,0-.6-.09h-.85Z"/><path class="cls-1" d="M83.64,20.81h.44v3.77h-.44Z"/><path class="cls-1" d="M88.75,24.32a2.36,2.36,0,0,1-.68.27,3,3,0,0,1-.73.09,2.07,2.07,0,0,1-.8-.15,1.8,1.8,0,0,1-1.06-1,2.17,2.17,0,0,1,0-1.61,2,2,0,0,1,.43-.63,2.15,2.15,0,0,1,.65-.4,2.26,2.26,0,0,1,.79-.14,2.46,2.46,0,0,1,.72.11,1.64,1.64,0,0,1,.61.38l-.34.35a1.25,1.25,0,0,0-.46-.31,1.38,1.38,0,0,0-.56-.12,1.46,1.46,0,0,0-.6.12,1.37,1.37,0,0,0-.48.33,1.27,1.27,0,0,0-.32.49,1.69,1.69,0,0,0,0,1.25,1.38,1.38,0,0,0,.32.5,1.27,1.27,0,0,0,.49.32,1.61,1.61,0,0,0,.63.12,2.8,2.8,0,0,0,.48-.05,2.09,2.09,0,0,0,.46-.17V22.89h-.87v-.42h1.31Z"/><path class="cls-1" d="M90.22,20.81h.45v3.77h-.45Z"/><path class="cls-1" d="M94.66,21.23H93.42v3.35H93V21.23H91.73v-.42h2.93Z"/><path class="cls-1" d="M96.45,20.81h.42l1.6,3.77H98l-.38-.92H95.69l-.39.92h-.5Zm.21.58h0l-.79,1.85H97.4Z"/><path class="cls-1" d="M99.51,20.81H100v3.36h1.73v.41H99.51Z"/><path class="cls-1" d="M107.34,21.59a1,1,0,0,0-.42-.34,1.17,1.17,0,0,0-.52-.12,1.33,1.33,0,0,0-.57.13,1.44,1.44,0,0,0-.46.35,1.54,1.54,0,0,0-.3.49,1.72,1.72,0,0,0-.1.6,1.74,1.74,0,0,0,.1.61,1.48,1.48,0,0,0,.3.5,1.45,1.45,0,0,0,.45.33,1.4,1.4,0,0,0,.58.12,1.38,1.38,0,0,0,.62-.13,1.35,1.35,0,0,0,.47-.39l.34.28a1.66,1.66,0,0,1-.62.5,2.05,2.05,0,0,1-.81.16,1.91,1.91,0,0,1-1.36-.56,1.88,1.88,0,0,1-.4-.63,2,2,0,0,1-.15-.79,2.21,2.21,0,0,1,.14-.78,1.88,1.88,0,0,1,.4-.63,2.15,2.15,0,0,1,.6-.42,2,2,0,0,1,.77-.15,2.07,2.07,0,0,1,.74.14,1.3,1.3,0,0,1,.59.45Z"/><path class="cls-1" d="M110.73,24.68a2.06,2.06,0,0,1-.79-.15,2,2,0,0,1-.62-.41,1.91,1.91,0,0,1-.41-.63,2.09,2.09,0,0,1-.15-.79,2,2,0,0,1,.15-.79,1.91,1.91,0,0,1,.41-.63,2,2,0,0,1,.62-.41,2.06,2.06,0,0,1,.79-.15,2,2,0,0,1,.79.15,1.92,1.92,0,0,1,.62.41,1.76,1.76,0,0,1,.41.63,2,2,0,0,1,.15.79,2.09,2.09,0,0,1-.15.79,1.76,1.76,0,0,1-.41.63,1.92,1.92,0,0,1-.62.41A2,2,0,0,1,110.73,24.68Zm0-.42a1.54,1.54,0,0,0,.61-.12,1.32,1.32,0,0,0,.47-.34,1.44,1.44,0,0,0,.3-.49,1.78,1.78,0,0,0,.11-.61,1.74,1.74,0,0,0-.11-.61,1.48,1.48,0,0,0-.3-.5,1.43,1.43,0,0,0-.47-.33,1.55,1.55,0,0,0-.61-.13,1.47,1.47,0,0,0-.6.13,1.43,1.43,0,0,0-.47.33,1.69,1.69,0,0,0-.31.5,1.74,1.74,0,0,0-.11.61,1.78,1.78,0,0,0,.11.61,1.64,1.64,0,0,0,.31.49,1.32,1.32,0,0,0,.47.34A1.46,1.46,0,0,0,110.73,24.26Z"/><path class="cls-1" d="M114,20.81h.66l1.28,3h0l1.29-3h.65v3.77h-.45V21.42h0L116,24.58h-.27l-1.35-3.16h0v3.16H114Z"/><path class="cls-1" d="M119.3,20.81h1.12a2,2,0,0,1,.5.06,1.13,1.13,0,0,1,.42.17.86.86,0,0,1,.29.31,1.09,1.09,0,0,1,.11.5,1,1,0,0,1-.12.51.92.92,0,0,1-.3.32,1.29,1.29,0,0,1-.4.16,2,2,0,0,1-.41.05h-.76v1.69h-.45Zm.45,1.66h.76a.91.91,0,0,0,.54-.15.53.53,0,0,0,.21-.47.54.54,0,0,0-.21-.47.91.91,0,0,0-.54-.15h-.76Z"/><path class="cls-1" d="M123.82,20.81h.42l1.6,3.77h-.52l-.38-.92h-1.89l-.38.92h-.51Zm.2.58h0l-.78,1.85h1.54Z"/><path class="cls-1" d="M126.87,20.81h.57l2.18,3.13h0V20.81h.44v3.77h-.56l-2.18-3.13h0v3.13h-.45Z"/><path class="cls-1" d="M132.43,23,131,20.81h.56l1.06,1.71,1.09-1.71h.54L132.88,23v1.62h-.45Z"/><rect class="cls-7" y="29.5" width="177.48" height="5.33"/></g></g></svg>