<?xml version="1.0" encoding="utf-8"?>
<!-- Generator: Adobe Illustrator 23.0.2, SVG Export Plug-In . SVG Version: 6.00 Build 0)  -->
<svg version="1.1" id="Layer_1" xmlns="http://www.w3.org/2000/svg" xmlns:xlink="http://www.w3.org/1999/xlink" x="0px" y="0px"
	 viewBox="0 0 126.9 68.2" style="enable-background:new 0 0 126.9 68.2;" xml:space="preserve">
<style type="text/css">
	.st0{fill:#416BA9;stroke:#416BA9;stroke-width:1.5;stroke-linecap:round;stroke-linejoin:round;stroke-miterlimit:10;}
	.st1{fill:#416BA9;stroke:#416BA9;stroke-width:0.49;stroke-linecap:round;stroke-linejoin:round;stroke-miterlimit:10;}
</style>
<g>
	<g>
		<path class="st0" d="M24.1,24.1c0,0.9,0.2,1.8,0.5,2.4c0.3,0.7,0.8,1.2,1.4,1.7s1.2,0.7,2,0.9s1.6,0.3,2.5,0.3
			c1,0,1.8-0.1,2.4-0.3c0.6-0.2,1.2-0.5,1.6-0.9s0.7-0.8,0.9-1.2s0.3-0.9,0.3-1.4c0-1-0.2-1.7-0.7-2.1c-0.4-0.5-0.9-0.8-1.4-1
			c-0.9-0.3-1.9-0.6-3.1-0.9s-2.6-0.7-4.4-1.1c-1.1-0.3-2-0.6-2.7-1.1c-0.7-0.4-1.3-1-1.7-1.5c-0.4-0.6-0.7-1.2-0.9-1.8
			s-0.3-1.3-0.3-1.9c0-1.3,0.3-2.3,0.8-3.3c0.5-0.9,1.2-1.7,2.1-2.3s1.8-1,2.9-1.3s2.2-0.4,3.3-0.4c1.3,0,2.5,0.2,3.7,0.5
			c1.1,0.3,2.2,0.8,3,1.5c0.9,0.7,1.6,1.5,2.1,2.5s0.8,2.1,0.8,3.4H35c-0.1-1.6-0.7-2.7-1.6-3.4c-1-0.7-2.2-1-3.7-1
			c-0.5,0-1,0-1.6,0.2c-0.5,0.1-1,0.3-1.5,0.5c-0.4,0.2-0.8,0.6-1.1,1c-0.3,0.4-0.4,0.9-0.4,1.6c0,0.9,0.3,1.6,0.8,2.1
			c0.5,0.5,1.3,0.9,2.1,1.1c0.1,0,0.5,0.1,1.1,0.3s1.4,0.4,2.1,0.6c0.8,0.2,1.6,0.4,2.3,0.6c0.8,0.2,1.3,0.3,1.6,0.4
			c0.8,0.3,1.5,0.6,2.1,1s1.1,1,1.5,1.5s0.7,1.2,0.9,1.8s0.3,1.3,0.3,2c0,1.4-0.3,2.6-0.9,3.6c-0.6,1-1.3,1.8-2.2,2.4
			s-2,1.1-3.2,1.4c-1.2,0.3-2.4,0.4-3.6,0.4c-1.4,0-2.8-0.2-4-0.5c-1.3-0.3-2.4-0.9-3.3-1.6S21,29.1,20.5,28c-0.6-1.1-0.9-2.5-0.9-4
			L24.1,24.1L24.1,24.1z"/>
		<path class="st0" d="M56,6.9c1.9,0,3.5,0.4,5,1c1.5,0.7,2.7,1.6,3.8,2.8c1,1.2,1.8,2.6,2.4,4.2s0.8,3.3,0.8,5
			c0,1.8-0.3,3.5-0.8,5.1s-1.3,3-2.4,4.2c-1,1.2-2.3,2.1-3.8,2.8c-1.5,0.7-3.2,1-5,1s-3.5-0.3-5-1s-2.7-1.6-3.8-2.8
			c-1-1.2-1.8-2.6-2.4-4.1S44,21.7,44,19.9c0-1.8,0.3-3.4,0.8-5s1.3-3,2.4-4.2c1-1.2,2.3-2.1,3.8-2.8C52.5,7.2,54.1,6.9,56,6.9z
			 M56,10.4c-1.3,0-2.5,0.3-3.4,0.8c-1,0.5-1.8,1.2-2.4,2.1c-0.6,0.9-1,1.9-1.3,3.1s-0.4,2.3-0.4,3.5s0.2,2.3,0.4,3.5
			c0.3,1.1,0.7,2.2,1.3,3.1s1.4,1.6,2.4,2.1s2.1,0.8,3.4,0.8c1.3,0,2.5-0.3,3.4-0.8c1-0.5,1.8-1.2,2.4-2.1c0.6-0.9,1-1.9,1.3-3.1
			s0.4-2.3,0.4-3.5s-0.2-2.3-0.4-3.5c-0.3-1.1-0.7-2.2-1.3-3.1c-0.6-0.9-1.4-1.6-2.4-2.2C58.5,10.7,57.3,10.4,56,10.4z"/>
		<path class="st0" d="M90.2,15.4c-0.2-0.7-0.4-1.4-0.8-2c-0.3-0.6-0.8-1.1-1.3-1.6c-0.5-0.4-1.1-0.8-1.8-1
			c-0.7-0.2-1.5-0.4-2.4-0.4c-1.3,0-2.5,0.3-3.4,0.8c-1,0.5-1.8,1.2-2.4,2.2c-0.6,0.9-1.1,1.9-1.3,3c-0.3,1.1-0.4,2.3-0.4,3.5
			s0.2,2.4,0.4,3.5s0.7,2.2,1.3,3c0.6,0.9,1.4,1.6,2.4,2.2s2.1,0.8,3.4,0.8c1,0,1.8-0.2,2.6-0.5c0.8-0.3,1.4-0.8,1.9-1.4
			s0.9-1.3,1.3-2.1c0.3-0.8,0.5-1.6,0.6-2.5h4.3c-0.1,1.5-0.4,2.9-1,4.1s-1.3,2.3-2.2,3.2c-0.9,0.9-2,1.6-3.3,2.1
			c-1.3,0.5-2.6,0.7-4.2,0.7c-1.9,0-3.5-0.3-5-1s-2.7-1.6-3.8-2.8c-1-1.2-1.8-2.6-2.4-4.1s-0.8-3.3-0.8-5.1s0.3-3.4,0.8-5
			c0.6-1.6,1.3-3,2.4-4.2c1-1.2,2.3-2.1,3.8-2.8s3.2-1,5-1c1.4,0,2.7,0.2,3.9,0.6s2.3,0.9,3.3,1.7c0.9,0.7,1.7,1.6,2.3,2.7
			c0.6,1,0.9,2.2,1.1,3.6L90.2,15.4L90.2,15.4z"/>
		<path d="M12.7,41.5c-0.4-0.3-0.9-0.4-1.4-0.4c-0.2,0-0.5,0-0.7,0.1c-0.2,0-0.4,0.1-0.6,0.2c-0.2,0.1-0.3,0.3-0.4,0.4
			c-0.1,0.2-0.2,0.4-0.2,0.7s0.1,0.5,0.2,0.6c0.1,0.2,0.4,0.3,0.6,0.4c0.3,0.1,0.5,0.2,0.9,0.2c0.3,0.1,0.6,0.1,1,0.2
			c0.3,0.1,0.7,0.2,1,0.3s0.6,0.2,0.9,0.4c0.3,0.2,0.5,0.4,0.6,0.7s0.2,0.6,0.2,1c0,0.5-0.1,0.8-0.3,1.2c-0.2,0.3-0.5,0.6-0.8,0.8
			s-0.7,0.3-1.1,0.4c-0.4,0.1-0.8,0.1-1.2,0.1c-0.5,0-0.9-0.1-1.3-0.2S9.3,48.5,9,48.3s-0.6-0.5-0.8-0.9S8,46.5,8,46h1
			c0,0.3,0.1,0.7,0.2,0.9c0.1,0.3,0.3,0.5,0.5,0.6s0.5,0.3,0.8,0.4s0.6,0.1,0.9,0.1c0.2,0,0.5,0,0.8-0.1s0.5-0.1,0.7-0.2
			s0.4-0.3,0.5-0.5s0.2-0.4,0.2-0.8c0-0.3-0.1-0.5-0.2-0.7c-0.1-0.2-0.4-0.3-0.6-0.4s-0.5-0.2-0.9-0.3c-0.3-0.1-0.6-0.1-1-0.2
			c-0.3-0.1-0.7-0.2-1-0.3S9.3,44.3,9,44.1c-0.3-0.2-0.5-0.4-0.6-0.6c-0.1-0.3-0.2-0.6-0.2-1s0.1-0.8,0.3-1.1s0.4-0.6,0.7-0.8
			s0.6-0.4,1-0.5s0.7-0.2,1.1-0.2c0.4,0,0.8,0.1,1.2,0.2s0.7,0.3,1,0.5s0.5,0.5,0.7,0.8s0.2,0.7,0.3,1.2h-1.1
			C13.3,42.3,13.1,41.8,12.7,41.5z"/>
		<path d="M20.4,48.4c-0.5,0.3-1,0.5-1.7,0.5c-0.5,0-0.9-0.1-1.3-0.2s-0.7-0.4-0.9-0.7s-0.4-0.6-0.6-1s-0.2-0.8-0.2-1.3
			s0.1-0.9,0.2-1.3c0.1-0.4,0.3-0.7,0.6-1s0.6-0.5,0.9-0.7s0.7-0.2,1.1-0.2c0.5,0,1,0.1,1.4,0.3s0.6,0.5,0.9,0.8
			c0.2,0.3,0.4,0.7,0.5,1.1s0.1,0.8,0.1,1.2h-4.6c0,0.3,0,0.5,0.1,0.8c0.1,0.2,0.2,0.4,0.3,0.6c0.2,0.2,0.4,0.3,0.6,0.4
			s0.5,0.2,0.9,0.2s0.8-0.1,1-0.3c0.3-0.2,0.5-0.5,0.5-0.9h1C21.1,47.6,20.8,48.1,20.4,48.4z M20.1,44.5c-0.1-0.2-0.2-0.4-0.4-0.6
			c-0.1-0.2-0.3-0.3-0.5-0.4s-0.4-0.1-0.7-0.1c-0.3,0-0.5,0-0.7,0.1s-0.4,0.2-0.5,0.4S17,44.3,17,44.5c-0.1,0.2-0.1,0.4-0.1,0.7h3.5
			C20.3,44.9,20.2,44.7,20.1,44.5z"/>
		<path d="M23.4,42.7V44l0,0c0.2-0.5,0.5-0.9,0.9-1.1s0.8-0.3,1.3-0.3v1.1c-0.4,0-0.7,0-1,0.2c-0.3,0.1-0.5,0.3-0.7,0.5
			s-0.3,0.5-0.4,0.8s-0.1,0.6-0.1,1v2.7h-1v-6.1L23.4,42.7L23.4,42.7z"/>
		<path d="M28.2,48.8L26,42.7h1.1l1.7,5.1l0,0l1.7-5.1h1l-2.2,6.1H28.2z"/>
		<path d="M32.6,41.6v-1.2h1v1.2H32.6z M33.6,42.7v6.1h-1v-6.1H33.6z"/>
		<path d="M39,43.8c-0.2-0.2-0.6-0.3-1-0.3s-0.7,0.1-0.9,0.2s-0.4,0.3-0.6,0.5c-0.2,0.2-0.2,0.5-0.3,0.8s-0.1,0.6-0.1,0.9
			s0,0.6,0.1,0.8c0.1,0.3,0.2,0.5,0.3,0.7s0.3,0.4,0.5,0.5s0.5,0.2,0.8,0.2c0.5,0,0.9-0.1,1.2-0.4s0.5-0.6,0.5-1.1h1
			c-0.1,0.8-0.4,1.3-0.8,1.7c-0.5,0.4-1.1,0.6-1.8,0.6c-0.5,0-0.9-0.1-1.2-0.2c-0.4-0.1-0.7-0.4-0.9-0.6c-0.2-0.3-0.4-0.6-0.5-1
			C35,46.7,35,46.3,35,45.8s0.1-0.9,0.2-1.3c0.1-0.4,0.3-0.7,0.5-1s0.5-0.5,0.9-0.7s0.8-0.2,1.3-0.2c0.3,0,0.7,0,1,0.1
			s0.6,0.2,0.8,0.4s0.4,0.4,0.6,0.7s0.2,0.6,0.3,0.9h-1C39.4,44.3,39.2,44,39,43.8z"/>
		<path d="M46.1,48.4c-0.5,0.3-1,0.5-1.7,0.5c-0.5,0-0.9-0.1-1.3-0.2s-0.7-0.4-0.9-0.7s-0.4-0.6-0.5-1s-0.2-0.8-0.2-1.3
			s0.1-0.9,0.2-1.3c0.1-0.4,0.3-0.7,0.6-1s0.6-0.5,0.9-0.7s0.7-0.2,1.2-0.2s1,0.1,1.3,0.3c0.4,0.2,0.6,0.5,0.9,0.8
			c0.2,0.3,0.4,0.7,0.5,1.1s0.1,0.8,0.1,1.2h-4.6c0,0.3,0,0.5,0.1,0.8c0.1,0.2,0.2,0.4,0.3,0.6c0.2,0.2,0.4,0.3,0.6,0.4
			c0.2,0.1,0.5,0.2,0.9,0.2s0.8-0.1,1-0.3c0.3-0.2,0.5-0.5,0.5-0.9h1C46.8,47.6,46.5,48.1,46.1,48.4z M45.8,44.5
			c-0.1-0.2-0.2-0.4-0.4-0.6s-0.3-0.3-0.5-0.4s-0.4-0.1-0.7-0.1s-0.5,0-0.7,0.1s-0.4,0.2-0.5,0.4s-0.3,0.3-0.3,0.6
			c-0.1,0.2-0.1,0.4-0.2,0.7H46C46,44.9,45.9,44.7,45.8,44.5z"/>
		<path d="M51.5,42.9c0.2-0.5,0.4-1,0.8-1.4s0.8-0.7,1.3-1c0.5-0.2,1.1-0.4,1.8-0.4s1.2,0.1,1.8,0.4c0.5,0.2,0.9,0.6,1.3,1
			s0.6,0.9,0.8,1.4s0.2,1.1,0.2,1.7s-0.1,1.1-0.2,1.7s-0.4,1-0.8,1.4s-0.8,0.7-1.3,1s-1.1,0.4-1.8,0.4s-1.2-0.1-1.8-0.4
			s-0.9-0.6-1.3-1s-0.6-0.9-0.8-1.4s-0.2-1.1-0.2-1.7S51.4,43.5,51.5,42.9z M52.6,45.9c0.1,0.4,0.3,0.8,0.5,1.1s0.5,0.6,0.9,0.8
			s0.8,0.3,1.3,0.3s1-0.1,1.3-0.3c0.4-0.2,0.7-0.5,0.9-0.8s0.4-0.7,0.5-1.1s0.2-0.8,0.2-1.3c0-0.4-0.1-0.8-0.2-1.3
			c-0.1-0.4-0.3-0.8-0.5-1.1s-0.5-0.6-0.9-0.8s-0.8-0.3-1.3-0.3s-1,0.1-1.3,0.3c-0.4,0.2-0.7,0.5-0.9,0.8s-0.4,0.7-0.5,1.1
			s-0.2,0.8-0.2,1.3C52.4,45,52.5,45.4,52.6,45.9z"/>
		<path d="M61.6,42.7V44l0,0c0.2-0.5,0.5-0.9,0.9-1.1c0.3-0.2,0.8-0.3,1.3-0.3v1.1c-0.4,0-0.7,0-1,0.2c-0.3,0.1-0.5,0.3-0.7,0.5
			s-0.3,0.5-0.4,0.8c-0.1,0.3-0.1,0.6-0.1,1v2.7h-1v-6.1L61.6,42.7L61.6,42.7z"/>
		<path d="M69,50.5c-0.5,0.5-1.2,0.7-2.2,0.7c-0.3,0-0.6,0-0.9-0.1s-0.6-0.2-0.8-0.3c-0.2-0.1-0.4-0.3-0.6-0.6
			c-0.2-0.2-0.2-0.5-0.3-0.8h1c0,0.2,0.1,0.3,0.2,0.5c0.1,0.1,0.2,0.2,0.4,0.3s0.3,0.1,0.5,0.2c0.2,0,0.3,0,0.5,0
			c0.3,0,0.6-0.1,0.8-0.2c0.2-0.1,0.4-0.3,0.6-0.5s0.3-0.4,0.3-0.7c0.1-0.3,0.1-0.6,0.1-0.9v-0.4l0,0c-0.2,0.4-0.4,0.7-0.8,0.8
			c-0.3,0.2-0.7,0.3-1.1,0.3c-0.5,0-0.8-0.1-1.2-0.2c-0.3-0.2-0.6-0.4-0.8-0.7c-0.2-0.3-0.4-0.6-0.5-1S64,46.1,64,45.7
			c0-0.4,0.1-0.7,0.1-1.1c0.1-0.4,0.2-0.7,0.5-1c0.2-0.3,0.5-0.6,0.9-0.8s0.8-0.3,1.3-0.3c0.4,0,0.7,0.1,1.1,0.2s0.6,0.4,0.8,0.8
			l0,0v-0.9h0.9v5.7C69.6,49.3,69.4,50,69,50.5z M67.7,47.8c0.2-0.1,0.4-0.3,0.6-0.5s0.2-0.5,0.3-0.8c0.1-0.3,0.1-0.6,0.1-0.8
			c0-0.3,0-0.5-0.1-0.8s-0.2-0.5-0.3-0.7s-0.3-0.4-0.5-0.5s-0.5-0.2-0.8-0.2s-0.6,0.1-0.8,0.2c-0.2,0.1-0.4,0.3-0.6,0.5
			s-0.2,0.4-0.3,0.7s-0.1,0.6-0.1,0.8c0,0.3,0,0.6,0.1,0.8c0.1,0.3,0.2,0.5,0.3,0.8c0.1,0.2,0.3,0.4,0.5,0.5s0.5,0.2,0.8,0.2
			S67.4,47.9,67.7,47.8z"/>
		<path d="M76.7,48.8C76.5,48.9,76.3,49,76,49s-0.5-0.1-0.6-0.2s-0.2-0.4-0.2-0.7c-0.3,0.3-0.6,0.6-1,0.7C73.8,49,73.4,49,73,49
			c-0.3,0-0.5,0-0.8-0.1c-0.2-0.1-0.5-0.2-0.6-0.3c-0.2-0.1-0.3-0.3-0.4-0.5S71,47.6,71,47.3s0.1-0.6,0.2-0.8s0.3-0.4,0.5-0.5
			s0.4-0.2,0.7-0.3c0.2-0.1,0.5-0.1,0.8-0.2s0.5-0.1,0.8-0.1c0.2,0,0.5-0.1,0.7-0.1s0.3-0.1,0.4-0.2s0.2-0.2,0.2-0.4s0-0.4-0.1-0.5
			S75,44,74.9,43.9s-0.3-0.1-0.4-0.1s-0.3,0-0.5,0c-0.4,0-0.8,0.1-1.1,0.2c-0.3,0.2-0.4,0.5-0.5,0.9h-1c0-0.4,0.1-0.7,0.2-1
			s0.3-0.5,0.6-0.6c0.2-0.2,0.5-0.3,0.8-0.3c0.3-0.1,0.6-0.1,1-0.1c0.3,0,0.6,0,0.8,0.1s0.5,0.1,0.7,0.2s0.4,0.3,0.5,0.5
			s0.2,0.5,0.2,0.9v3.1c0,0.2,0,0.4,0,0.5s0.1,0.2,0.3,0.2c0.1,0,0.2,0,0.3,0L76.7,48.8L76.7,48.8z M75,45.7
			c-0.1,0.1-0.3,0.2-0.5,0.2S74.1,46,73.9,46s-0.4,0.1-0.7,0.1s-0.4,0.1-0.6,0.2s-0.3,0.2-0.4,0.3S72,46.9,72,47.2
			c0,0.2,0,0.3,0.1,0.4s0.2,0.2,0.3,0.3c0.1,0.1,0.2,0.1,0.4,0.2c0.1,0,0.3,0,0.4,0c0.3,0,0.6,0,0.8-0.1c0.2-0.1,0.4-0.2,0.6-0.3
			s0.3-0.3,0.3-0.5C75,47,75,46.9,75,46.8V45.7L75,45.7z"/>
		<path d="M78.7,42.7v1l0,0c0.4-0.7,1.1-1.1,2-1.1c0.4,0,0.7,0.1,1,0.2s0.5,0.3,0.7,0.5s0.3,0.4,0.3,0.7c0.1,0.3,0.1,0.6,0.1,0.9v4
			h-1v-4.1c0-0.4-0.1-0.7-0.3-0.9s-0.5-0.3-0.9-0.3c-0.3,0-0.6,0.1-0.8,0.1c-0.2,0.1-0.4,0.2-0.6,0.4s-0.3,0.4-0.3,0.6
			c-0.1,0.2-0.1,0.5-0.1,0.8v3.4h-1v-6.1L78.7,42.7L78.7,42.7z"/>
		<path d="M84.4,41.6v-1.2h1v1.2H84.4z M85.4,42.7v6.1h-1v-6.1H85.4z"/>
		<path d="M90.3,43.6h-3.4v-0.9h4.7v0.7l-3.7,4.5h3.9v0.9h-5.1V48L90.3,43.6z"/>
		<path d="M98.3,48.8c-0.2,0.1-0.4,0.2-0.7,0.2c-0.3,0-0.5-0.1-0.6-0.2s-0.2-0.4-0.2-0.7c-0.3,0.3-0.6,0.6-1,0.7
			C95.4,49,95,49,94.6,49c-0.3,0-0.5,0-0.8-0.1c-0.2-0.1-0.5-0.2-0.6-0.3c-0.2-0.1-0.3-0.3-0.4-0.5s-0.2-0.5-0.2-0.8
			s0.1-0.6,0.2-0.8s0.3-0.4,0.5-0.5s0.4-0.2,0.7-0.3c0.2-0.1,0.5-0.1,0.8-0.2s0.5-0.1,0.8-0.1c0.2,0,0.5-0.1,0.7-0.1
			s0.3-0.1,0.4-0.2s0.2-0.2,0.2-0.4s0-0.4-0.1-0.5s-0.2-0.2-0.3-0.3s-0.3-0.1-0.4-0.1s-0.3,0-0.5,0c-0.4,0-0.8,0.1-1.1,0.2
			c-0.3,0.2-0.4,0.5-0.5,0.9h-1c0-0.4,0.1-0.7,0.2-1s0.3-0.5,0.6-0.6c0.2-0.2,0.5-0.3,0.8-0.3c0.3-0.1,0.6-0.1,1-0.1
			c0.3,0,0.6,0,0.8,0.1s0.5,0.1,0.7,0.2s0.4,0.3,0.5,0.5s0.2,0.5,0.2,0.9v3.1c0,0.2,0,0.4,0,0.5s0.1,0.2,0.3,0.2c0.1,0,0.2,0,0.3,0
			L98.3,48.8L98.3,48.8z M96.7,45.7c-0.1,0.1-0.3,0.2-0.5,0.2S95.8,46,95.6,46s-0.4,0.1-0.7,0.1s-0.4,0.1-0.6,0.2s-0.3,0.2-0.4,0.3
			s-0.2,0.3-0.2,0.6c0,0.2,0,0.3,0.1,0.4s0.2,0.2,0.3,0.3c0.1,0.1,0.2,0.1,0.4,0.2c0.1,0,0.3,0,0.4,0c0.3,0,0.6,0,0.8-0.1
			c0.2-0.1,0.4-0.2,0.6-0.3s0.3-0.3,0.3-0.5c0.1-0.2,0.1-0.3,0.1-0.4L96.7,45.7L96.7,45.7z"/>
		<path d="M101.9,42.7v0.9h-1.2v3.8c0,0.1,0,0.2,0,0.3s0.1,0.1,0.1,0.2c0.1,0,0.1,0.1,0.2,0.1s0.2,0,0.4,0h0.5v0.9h-0.8
			c-0.3,0-0.5,0-0.7,0s-0.3-0.1-0.4-0.2s-0.2-0.2-0.2-0.4c-0.1-0.2-0.1-0.4-0.1-0.7v-3.9h-1v-0.9h1V41h1v1.8L101.9,42.7L101.9,42.7z
			"/>
		<path d="M103.2,41.6v-1.2h1v1.2H103.2z M104.2,42.7v6.1h-1v-6.1H104.2z"/>
		<path d="M105.8,44.5c0.1-0.4,0.3-0.7,0.6-1c0.2-0.3,0.6-0.5,0.9-0.7s0.8-0.2,1.3-0.2s0.9,0.1,1.3,0.2c0.4,0.2,0.7,0.4,0.9,0.7
			c0.2,0.3,0.4,0.6,0.6,1s0.2,0.8,0.2,1.3s-0.1,0.9-0.2,1.2c-0.1,0.4-0.3,0.7-0.6,1c-0.2,0.3-0.6,0.5-0.9,0.7
			c-0.4,0.2-0.8,0.2-1.3,0.2s-0.9-0.1-1.3-0.2c-0.4-0.2-0.7-0.4-0.9-0.7c-0.2-0.3-0.4-0.6-0.6-1c-0.1-0.4-0.2-0.8-0.2-1.2
			C105.6,45.3,105.6,44.9,105.8,44.5z M106.8,46.8c0.1,0.3,0.2,0.5,0.4,0.7c0.2,0.2,0.4,0.3,0.6,0.4s0.5,0.2,0.7,0.2
			c0.3,0,0.5-0.1,0.7-0.2s0.4-0.2,0.6-0.4s0.3-0.4,0.4-0.7s0.2-0.6,0.2-1s-0.1-0.7-0.2-1s-0.2-0.5-0.4-0.7c-0.2-0.2-0.4-0.3-0.6-0.4
			s-0.5-0.2-0.7-0.2c-0.3,0-0.5,0.1-0.7,0.2s-0.4,0.2-0.6,0.4s-0.3,0.4-0.4,0.7s-0.2,0.6-0.2,1C106.6,46.1,106.7,46.5,106.8,46.8z"
			/>
		<path d="M113.7,42.7v1l0,0c0.4-0.7,1.1-1.1,2-1.1c0.4,0,0.7,0.1,1,0.2s0.5,0.3,0.7,0.5s0.3,0.4,0.3,0.7c0.1,0.3,0.1,0.6,0.1,0.9v4
			h-1v-4.1c0-0.4-0.1-0.7-0.3-0.9s-0.5-0.3-0.9-0.3c-0.3,0-0.6,0.1-0.8,0.1c-0.2,0.1-0.4,0.2-0.6,0.4s-0.3,0.4-0.3,0.6
			c-0.1,0.2-0.1,0.5-0.1,0.8v3.4h-1v-6.1L113.7,42.7L113.7,42.7z"/>
		<path d="M26.9,56.1c-0.4-0.3-0.9-0.5-1.5-0.5c-0.5,0-0.9,0.1-1.3,0.3s-0.6,0.4-0.9,0.8c-0.2,0.3-0.4,0.7-0.5,1.1s-0.2,0.8-0.2,1.3
			s0,0.9,0.2,1.4c0.1,0.4,0.3,0.8,0.5,1.1s0.5,0.6,0.9,0.8s0.8,0.3,1.3,0.3c0.4,0,0.7-0.1,1-0.2s0.5-0.3,0.7-0.5s0.4-0.5,0.5-0.8
			s0.2-0.6,0.2-1h1.1c-0.1,1.1-0.5,1.9-1.1,2.5s-1.5,0.9-2.5,0.9c-0.6,0-1.2-0.1-1.7-0.3s-0.9-0.5-1.2-0.9c-0.3-0.4-0.6-0.9-0.7-1.4
			c-0.2-0.5-0.2-1.1-0.2-1.7s0.1-1.2,0.3-1.7c0.2-0.5,0.4-1,0.8-1.4s0.8-0.7,1.2-0.9c0.5-0.2,1.1-0.4,1.7-0.4c0.4,0,0.9,0.1,1.2,0.2
			c0.4,0.1,0.7,0.3,1,0.5s0.6,0.5,0.8,0.8s0.3,0.7,0.4,1.2h-1.1C27.6,56.9,27.3,56.4,26.9,56.1z"/>
		<path d="M30.1,59c0.1-0.4,0.3-0.7,0.6-1s0.6-0.5,0.9-0.7c0.4-0.2,0.8-0.2,1.3-0.2s0.9,0.1,1.3,0.2s0.7,0.4,0.9,0.7s0.4,0.6,0.6,1
			s0.2,0.8,0.2,1.3s-0.1,0.9-0.2,1.2c-0.1,0.4-0.3,0.7-0.6,1s-0.6,0.5-0.9,0.7c-0.4,0.2-0.8,0.2-1.3,0.2s-0.9-0.1-1.3-0.2
			c-0.4-0.2-0.7-0.4-0.9-0.7s-0.4-0.6-0.6-1c-0.1-0.4-0.2-0.8-0.2-1.2C29.9,59.8,30,59.4,30.1,59z M31.1,61.3
			c0.1,0.3,0.2,0.5,0.4,0.7s0.4,0.3,0.6,0.4c0.2,0.1,0.5,0.2,0.7,0.2c0.3,0,0.5-0.1,0.7-0.2s0.4-0.2,0.6-0.4
			c0.2-0.2,0.3-0.4,0.4-0.7s0.2-0.6,0.2-1s0-0.7-0.2-1c-0.1-0.3-0.2-0.5-0.4-0.7s-0.4-0.3-0.6-0.4C33.3,58.1,33,58,32.8,58
			c-0.3,0-0.5,0.1-0.7,0.2s-0.4,0.2-0.6,0.4s-0.3,0.4-0.4,0.7s-0.1,0.6-0.1,1C31,60.6,31,61,31.1,61.3z"/>
		<path d="M38.1,57.2v1l0,0c0.4-0.7,1.1-1.1,2-1.1c0.4,0,0.7,0.1,1,0.2s0.5,0.3,0.7,0.5s0.3,0.4,0.3,0.7s0.1,0.6,0.1,0.9v4h-1v-4.1
			c0-0.4-0.1-0.7-0.3-0.9s-0.5-0.3-0.9-0.3c-0.3,0-0.6,0-0.8,0.1s-0.4,0.2-0.6,0.4s-0.3,0.4-0.3,0.6c-0.1,0.2-0.1,0.5-0.1,0.8v3.3
			h-1v-6.1C37.2,57.2,38.1,57.2,38.1,57.2z"/>
		<path d="M46.4,57.2v0.9h-1.2v3.8c0,0.1,0,0.2,0,0.3s0.1,0.1,0.1,0.2s0.1,0.1,0.2,0.1s0.2,0,0.4,0h0.5v0.8h-0.8
			c-0.3,0-0.5,0-0.7-0.1c-0.2,0-0.3-0.1-0.5-0.2c-0.1-0.1-0.2-0.2-0.2-0.4s-0.1-0.4-0.1-0.7V58h-1v-0.9h1v-1.8h1v1.8L46.4,57.2
			L46.4,57.2z"/>
		<path d="M48.5,57.2v1.3l0,0c0.2-0.5,0.5-0.9,0.9-1.1c0.3-0.2,0.8-0.4,1.3-0.3v1.1c-0.4,0-0.7,0.1-1,0.2s-0.5,0.3-0.7,0.5
			s-0.3,0.5-0.4,0.8s-0.1,0.7-0.1,1v2.6h-1v-6.1H48.5L48.5,57.2z"/>
		<path d="M51.3,59c0.1-0.4,0.3-0.7,0.6-1s0.6-0.5,0.9-0.7c0.4-0.2,0.8-0.2,1.3-0.2s0.9,0.1,1.3,0.2s0.7,0.4,0.9,0.7s0.4,0.6,0.6,1
			s0.2,0.8,0.2,1.3s-0.1,0.9-0.2,1.2c-0.1,0.4-0.3,0.7-0.6,1s-0.6,0.5-0.9,0.7c-0.4,0.2-0.8,0.2-1.3,0.2s-0.9-0.1-1.3-0.2
			c-0.4-0.2-0.7-0.4-0.9-0.7s-0.4-0.6-0.6-1c-0.1-0.4-0.2-0.8-0.2-1.2C51.2,59.8,51.2,59.4,51.3,59z M52.3,61.3
			c0.1,0.3,0.2,0.5,0.4,0.7s0.4,0.3,0.6,0.4c0.2,0.1,0.5,0.2,0.7,0.2c0.3,0,0.5-0.1,0.7-0.2s0.4-0.2,0.6-0.4s0.3-0.4,0.4-0.7
			s0.2-0.6,0.2-1s0-0.7-0.2-1c-0.1-0.3-0.2-0.5-0.4-0.7s-0.4-0.3-0.6-0.4C54.5,58.1,54.2,58,54,58c-0.3,0-0.5,0.1-0.7,0.2
			s-0.4,0.2-0.6,0.4c-0.2,0.2-0.3,0.4-0.4,0.7c-0.1,0.3-0.2,0.6-0.2,1C52.2,60.6,52.3,61,52.3,61.3z"/>
		<path d="M59.4,54.9v8.4h-1v-8.4H59.4z"/>
		<path d="M68.2,54.9l3.3,8.4h-1.2l-0.9-2.5h-3.6l-1,2.5h-1.1l3.3-8.4C67,54.9,68.2,54.9,68.2,54.9z M69,59.9L67.6,56l0,0l-1.4,3.9
			H69z"/>
		<path d="M76.3,63.3v-1l0,0c-0.2,0.4-0.5,0.7-0.8,0.8c-0.3,0.2-0.7,0.3-1.2,0.3c-0.4,0-0.7-0.1-1-0.2s-0.5-0.3-0.7-0.4
			c-0.2-0.2-0.3-0.4-0.3-0.7s-0.1-0.6-0.1-0.9v-4h1v4.1c0,0.4,0.1,0.7,0.3,0.9s0.5,0.3,0.9,0.3c0.3,0,0.6-0.1,0.8-0.1
			c0.2-0.1,0.4-0.2,0.6-0.4s0.3-0.4,0.3-0.6c0.1-0.2,0.1-0.5,0.1-0.8v-3.4h1v6.1L76.3,63.3L76.3,63.3z"/>
		<path d="M83.4,63.3v-0.8l0,0c-0.2,0.3-0.4,0.6-0.8,0.7c-0.3,0.2-0.7,0.2-1.2,0.2s-0.9-0.1-1.2-0.3c-0.3-0.2-0.6-0.4-0.9-0.7
			c-0.2-0.3-0.4-0.6-0.5-1s-0.2-0.8-0.2-1.2s0.1-0.8,0.2-1.2s0.3-0.7,0.5-1s0.5-0.5,0.9-0.7c0.3-0.2,0.8-0.2,1.2-0.2
			c0.2,0,0.3,0,0.5,0s0.4,0.1,0.5,0.2c0.2,0.1,0.3,0.2,0.5,0.3s0.3,0.3,0.4,0.5l0,0V55h1v8.3H83.4L83.4,63.3z M79.8,61.2
			c0.1,0.3,0.2,0.5,0.3,0.7c0.2,0.2,0.3,0.4,0.6,0.5c0.2,0.1,0.5,0.2,0.8,0.2s0.6-0.1,0.9-0.2s0.4-0.3,0.6-0.5s0.3-0.5,0.3-0.7
			c0.1-0.3,0.1-0.5,0.1-0.8s0-0.6-0.1-0.9S83.1,59,83,58.8c-0.2-0.2-0.3-0.4-0.6-0.5c-0.2-0.1-0.5-0.2-0.9-0.2s-0.6,0.1-0.9,0.2
			c-0.2,0.1-0.4,0.3-0.6,0.5c-0.1,0.2-0.2,0.5-0.3,0.8c-0.1,0.3-0.1,0.6-0.1,0.9C79.7,60.6,79.7,60.9,79.8,61.2z"/>
		<path d="M86.1,56.1v-1.2h1v1.2H86.1z M87.1,57.2v6.1h-1v-6.1H87.1z"/>
		<path d="M91.4,57.2v0.9h-1.2v3.8c0,0.1,0,0.2,0,0.3s0.1,0.1,0.1,0.2s0.1,0.1,0.2,0.1s0.2,0,0.4,0h0.5v0.8h-0.8
			c-0.3,0-0.5,0-0.7-0.1c-0.2,0-0.3-0.1-0.4-0.2s-0.2-0.2-0.2-0.4s-0.1-0.4-0.1-0.7V58h-1v-0.9h1v-1.8h1v1.8L91.4,57.2L91.4,57.2z"
			/>
		<path d="M96.9,62.9c-0.5,0.3-1,0.5-1.7,0.5c-0.5,0-0.9-0.1-1.3-0.2c-0.4-0.2-0.7-0.4-0.9-0.7s-0.4-0.6-0.6-1
			c-0.1-0.4-0.2-0.8-0.2-1.3s0.1-0.9,0.2-1.3s0.3-0.7,0.6-1s0.6-0.5,0.9-0.7s0.7-0.2,1.2-0.2s1,0.1,1.3,0.3c0.4,0.2,0.6,0.5,0.9,0.8
			c0.2,0.3,0.4,0.7,0.4,1.1c0.1,0.4,0.1,0.8,0.1,1.2h-4.6c0,0.3,0,0.5,0.1,0.8c0.1,0.2,0.2,0.5,0.3,0.6c0.2,0.2,0.4,0.3,0.6,0.4
			s0.5,0.2,0.9,0.2s0.8-0.1,1-0.3c0.3-0.2,0.4-0.5,0.5-0.9h1C97.7,62.1,97.4,62.6,96.9,62.9z M96.7,59c-0.1-0.2-0.2-0.4-0.4-0.6
			c-0.2-0.2-0.3-0.3-0.5-0.4s-0.4-0.1-0.7-0.1c-0.3,0-0.5,0-0.7,0.1s-0.4,0.2-0.5,0.4s-0.3,0.3-0.3,0.6c-0.1,0.2-0.1,0.4-0.2,0.7
			h3.5C96.8,59.5,96.8,59.2,96.7,59z"/>
		<path d="M103.5,63.3v-0.8l0,0c-0.2,0.3-0.4,0.6-0.8,0.7c-0.3,0.2-0.7,0.2-1.2,0.2s-0.9-0.1-1.2-0.3c-0.3-0.2-0.6-0.4-0.9-0.7
			c-0.2-0.3-0.4-0.6-0.5-1s-0.2-0.8-0.2-1.2s0.1-0.8,0.2-1.2s0.3-0.7,0.5-1s0.5-0.5,0.9-0.7c0.3-0.2,0.8-0.2,1.2-0.2
			c0.2,0,0.3,0,0.5,0s0.4,0.1,0.5,0.2c0.2,0.1,0.3,0.2,0.5,0.3s0.3,0.3,0.4,0.5l0,0V55h1v8.3H103.5L103.5,63.3z M99.9,61.2
			c0.1,0.3,0.2,0.5,0.3,0.7c0.2,0.2,0.3,0.4,0.6,0.5c0.2,0.1,0.5,0.2,0.8,0.2s0.6-0.1,0.9-0.2s0.4-0.3,0.6-0.5s0.3-0.5,0.3-0.7
			c0.1-0.3,0.1-0.5,0.1-0.8s0-0.6-0.1-0.9s-0.2-0.5-0.3-0.7c-0.2-0.2-0.3-0.4-0.6-0.5c-0.2-0.1-0.5-0.2-0.9-0.2s-0.6,0.1-0.9,0.2
			c-0.2,0.1-0.4,0.3-0.6,0.5c-0.1,0.2-0.2,0.5-0.3,0.8c-0.1,0.3-0.1,0.6-0.1,0.9C99.8,60.6,99.8,60.9,99.9,61.2z"/>
	</g>
</g>
<g>
	<path class="st1" d="M101.6,14.4h-4.3v-3.5h0.5c1.8,0,2.2-0.3,3.2-1c1-0.7,1.7-1.8,2-3.2h3.9V33h-5.4V14.4z"/>
</g>
</svg>
