<?xml version="1.0" encoding="utf-8"?>
<!-- Generator: Adobe Illustrator 23.0.1, SVG Export Plug-In . SVG Version: 6.00 Build 0)  -->
<svg version="1.1" xmlns="http://www.w3.org/2000/svg" xmlns:xlink="http://www.w3.org/1999/xlink" x="0px" y="0px"
	 viewBox="0 0 315.2 126" style="enable-background:new 0 0 315.2 126;" xml:space="preserve">
<style type="text/css">
	.st0{fill:#416BA9;}
	.st1{fill:none;stroke:#000000;stroke-width:1.2403;stroke-linecap:round;stroke-linejoin:round;stroke-miterlimit:10;}
	.st2{fill:#666666;}
	.st3{font-family:'HelveticaNeue-Medium';}
	.st4{font-size:13px;}
</style>
<g id="Layer_1">
	<g>
		<g>
			<g>
				<path d="M134.9,50.5c-0.5,0.2-1.4,0.5-2.6,0.5c-2.8,0-4.9-1.8-4.9-5.1c0-3.1,2.1-5.3,5.2-5.3c1.2,0,2,0.3,2.4,0.5l-0.3,1.1
					c-0.5-0.2-1.2-0.4-2-0.4c-2.4,0-3.9,1.5-3.9,4.1c0,2.5,1.4,4,3.9,4c0.8,0,1.6-0.2,2.1-0.4L134.9,50.5z"/>
				<path d="M142.7,46.1h-3.9v3.6h4.3v1.1h-5.6v-10h5.4v1.1h-4.1V45h3.9V46.1z"/>
				<path d="M145.8,40.9c0.6-0.1,1.6-0.2,2.5-0.2c1.4,0,2.3,0.2,2.9,0.8c0.5,0.5,0.8,1.1,0.8,1.9c0,1.3-0.8,2.2-1.9,2.6v0
					c0.8,0.3,1.2,1,1.5,2c0.3,1.4,0.6,2.4,0.8,2.8h-1.3c-0.2-0.3-0.4-1.1-0.7-2.4c-0.3-1.4-0.8-1.9-2-2H147v4.3h-1.3L145.8,40.9
					L145.8,40.9z M147.1,45.5h1.3c1.4,0,2.3-0.8,2.3-1.9c0-1.3-0.9-1.9-2.3-1.9c-0.6,0-1.1,0.1-1.3,0.1L147.1,45.5L147.1,45.5z"/>
				<path d="M156.8,41.9h-3.1v-1.1h7.4v1.1h-3.1v8.9h-1.3L156.8,41.9L156.8,41.9z"/>
				<path d="M164.5,40.8v10h-1.3v-10H164.5z"/>
				<path d="M167.8,40.8h5.4v1.1H169v3.3h3.8v1.1H169v4.5h-1.3V40.8z"/>
				<path d="M177.3,40.8v10H176v-10H177.3z"/>
				<path d="M185.7,46.1h-3.9v3.6h4.3v1.1h-5.6v-10h5.4v1.1h-4.1V45h3.9V46.1z"/>
				<path d="M188.8,40.9c0.8-0.1,1.7-0.2,2.8-0.2c1.9,0,3.2,0.4,4.1,1.2c0.9,0.8,1.4,2,1.4,3.6c0,1.6-0.5,3-1.4,3.9
					c-0.9,0.9-2.5,1.4-4.4,1.4c-0.9,0-1.7,0-2.4-0.1V40.9z M190.1,49.8c0.3,0.1,0.8,0.1,1.3,0.1c2.8,0,4.3-1.5,4.3-4.2
					c0-2.4-1.3-3.9-4.1-3.9c-0.7,0-1.2,0.1-1.5,0.1V49.8z"/>
				<path d="M203.8,40.9c0.6-0.1,1.4-0.2,2.5-0.2c1.3,0,2.2,0.3,2.8,0.8c0.6,0.5,0.9,1.2,0.9,2.1c0,0.9-0.3,1.6-0.8,2.1
					c-0.7,0.7-1.8,1.1-3.1,1.1c-0.4,0-0.7,0-1-0.1v4h-1.3L203.8,40.9L203.8,40.9z M205.1,45.7c0.3,0.1,0.6,0.1,1.1,0.1
					c1.6,0,2.5-0.8,2.5-2.1c0-1.3-0.9-2-2.4-2c-0.6,0-1,0-1.2,0.1L205.1,45.7L205.1,45.7z"/>
				<path d="M212.7,40.9c0.6-0.1,1.6-0.2,2.5-0.2c1.4,0,2.3,0.2,2.9,0.8c0.5,0.5,0.8,1.1,0.8,1.9c0,1.3-0.8,2.2-1.9,2.6v0
					c0.8,0.3,1.2,1,1.5,2c0.3,1.4,0.6,2.4,0.8,2.8h-1.3c-0.2-0.3-0.4-1.1-0.7-2.4c-0.3-1.4-0.8-1.9-2-2H214v4.3h-1.3L212.7,40.9
					L212.7,40.9z M214,45.5h1.3c1.4,0,2.3-0.8,2.3-1.9c0-1.3-0.9-1.9-2.3-1.9c-0.6,0-1.1,0.1-1.3,0.1L214,45.5L214,45.5z"/>
				<path d="M230.3,45.7c0,3.5-2.1,5.3-4.7,5.3c-2.6,0-4.5-2.1-4.5-5.1c0-3.2,2-5.3,4.7-5.3C228.5,40.6,230.3,42.7,230.3,45.7z
					 M222.5,45.9c0,2.1,1.2,4.1,3.2,4.1c2.1,0,3.2-1.9,3.2-4.2c0-2-1-4.1-3.2-4.1C223.6,41.7,222.5,43.6,222.5,45.9z"/>
				<path d="M232.9,40.8h5.4v1.1h-4.1v3.3h3.8v1.1h-3.8v4.5h-1.3V40.8z"/>
				<path d="M246.3,46.1h-3.9v3.6h4.3v1.1h-5.6v-10h5.4v1.1h-4.1V45h3.9V46.1z"/>
				<path d="M249.2,49.2c0.6,0.4,1.4,0.7,2.3,0.7c1.3,0,2.1-0.7,2.1-1.7c0-0.9-0.5-1.5-1.9-2c-1.6-0.6-2.6-1.4-2.6-2.8
					c0-1.6,1.3-2.7,3.2-2.7c1,0,1.8,0.2,2.2,0.5l-0.4,1.1c-0.3-0.2-1-0.5-1.9-0.5c-1.4,0-1.9,0.8-1.9,1.5c0,0.9,0.6,1.4,2,1.9
					c1.7,0.6,2.6,1.5,2.6,3c0,1.5-1.1,2.9-3.5,2.9c-1,0-2-0.3-2.6-0.6L249.2,49.2z"/>
				<path d="M257.5,49.2c0.6,0.4,1.4,0.7,2.3,0.7c1.3,0,2.1-0.7,2.1-1.7c0-0.9-0.5-1.5-1.9-2c-1.6-0.6-2.6-1.4-2.6-2.8
					c0-1.6,1.3-2.7,3.2-2.7c1,0,1.8,0.2,2.2,0.5l-0.4,1.1c-0.3-0.2-1-0.5-1.9-0.5c-1.4,0-1.9,0.8-1.9,1.5c0,0.9,0.6,1.4,2,1.9
					c1.7,0.6,2.6,1.5,2.6,3c0,1.5-1.1,2.9-3.5,2.9c-1,0-2-0.3-2.6-0.6L257.5,49.2z"/>
				<path d="M267.3,40.8v10H266v-10H267.3z"/>
				<path d="M279.1,45.7c0,3.5-2.1,5.3-4.7,5.3c-2.6,0-4.5-2.1-4.5-5.1c0-3.2,2-5.3,4.7-5.3C277.4,40.6,279.1,42.7,279.1,45.7z
					 M271.4,45.9c0,2.1,1.2,4.1,3.2,4.1c2,0,3.2-1.9,3.2-4.2c0-2-1-4.1-3.2-4.1C272.4,41.7,271.4,43.6,271.4,45.9z"/>
				<path d="M281.8,50.8v-10h1.4l3.2,5.1c0.7,1.2,1.3,2.2,1.8,3.3l0,0c-0.1-1.3-0.1-2.6-0.1-4.1v-4.2h1.2v10H288l-3.2-5.1
					c-0.7-1.1-1.4-2.3-1.9-3.4l0,0c0.1,1.3,0.1,2.5,0.1,4.1v4.3L281.8,50.8L281.8,50.8z"/>
				<path d="M294.2,47.7l-1,3.2h-1.3l3.4-10h1.6l3.4,10h-1.4l-1.1-3.2H294.2z M297.5,46.6l-1-2.9c-0.2-0.7-0.4-1.2-0.5-1.8h0
					c-0.1,0.6-0.3,1.2-0.5,1.8l-1,2.9L297.5,46.6L297.5,46.6z"/>
				<path d="M302.6,40.8h1.3v8.9h4.3v1.1h-5.6L302.6,40.8L302.6,40.8z"/>
				<path d="M133.1,62.6h-3.9v3.6h4.3v1.1h-5.6v-10h5.4v1.1h-4.1v3.2h3.9V62.6z"/>
				<path d="M144.4,62.9c-0.1-1.4-0.2-3.1-0.1-4.3h0c-0.3,1.2-0.8,2.4-1.3,3.8l-1.8,4.9h-1l-1.6-4.8c-0.5-1.4-0.9-2.7-1.2-3.9h0
					c0,1.2-0.1,2.9-0.2,4.4l-0.3,4.3h-1.2l0.7-10h1.6l1.7,4.8c0.4,1.2,0.8,2.3,1,3.4h0c0.2-1,0.6-2.1,1.1-3.4l1.8-4.8h1.6l0.6,10
					h-1.3L144.4,62.9z"/>
				<path d="M148.6,57.4c0.6-0.1,1.4-0.2,2.5-0.2c1.3,0,2.2,0.3,2.8,0.8c0.6,0.5,0.9,1.2,0.9,2.1c0,0.9-0.3,1.6-0.8,2.1
					c-0.7,0.7-1.8,1.1-3.1,1.1c-0.4,0-0.7,0-1-0.1v4h-1.3L148.6,57.4L148.6,57.4z M149.9,62.3c0.3,0.1,0.6,0.1,1.1,0.1
					c1.6,0,2.5-0.8,2.5-2.1c0-1.3-0.9-2-2.4-2c-0.6,0-1,0-1.2,0.1L149.9,62.3L149.9,62.3z"/>
				<path d="M157.3,57.3h1.3v8.9h4.3v1.1h-5.6L157.3,57.3L157.3,57.3z"/>
				<path d="M173.1,62.2c0,3.5-2.1,5.3-4.7,5.3c-2.6,0-4.5-2-4.5-5.1c0-3.2,2-5.3,4.7-5.3C171.3,57.2,173.1,59.2,173.1,62.2z
					 M165.3,62.4c0,2.1,1.2,4.1,3.2,4.1c2.1,0,3.2-1.9,3.2-4.2c0-2-1-4.1-3.2-4.1C166.4,58.2,165.3,60.2,165.3,62.4z"/>
				<path d="M177.3,67.3v-4.2l-3.2-5.8h1.5l1.4,2.8c0.4,0.8,0.7,1.4,1,2.1h0c0.3-0.7,0.6-1.3,1-2.1l1.4-2.8h1.5l-3.4,5.8v4.3
					L177.3,67.3L177.3,67.3z"/>
				<path d="M189,62.6h-3.9v3.6h4.3v1.1h-5.6v-10h5.4v1.1h-4.1v3.2h3.9V62.6z"/>
				<path d="M191.8,57.4c0.6-0.1,1.6-0.2,2.5-0.2c1.4,0,2.3,0.2,2.9,0.8c0.5,0.5,0.8,1.1,0.8,1.9c0,1.3-0.8,2.2-1.9,2.6v0
					c0.8,0.3,1.2,1,1.5,2c0.3,1.4,0.6,2.4,0.8,2.8H197c-0.2-0.3-0.4-1.2-0.7-2.4c-0.3-1.4-0.8-1.9-2-2h-1.2v4.3h-1.3L191.8,57.4
					L191.8,57.4z M193.1,62h1.3c1.4,0,2.3-0.8,2.3-1.9c0-1.3-0.9-1.9-2.3-1.9c-0.6,0-1.1,0.1-1.3,0.1L193.1,62L193.1,62z"/>
				<path d="M212.3,62.2c0,3.5-2.1,5.3-4.7,5.3c-2.6,0-4.5-2-4.5-5.1c0-3.2,2-5.3,4.7-5.3C210.5,57.2,212.3,59.2,212.3,62.2z
					 M204.5,62.4c0,2.1,1.2,4.1,3.2,4.1c2.1,0,3.2-1.9,3.2-4.2c0-2-1-4.1-3.2-4.1C205.6,58.2,204.5,60.2,204.5,62.4z"/>
				<path d="M214.7,57.4c0.6-0.1,1.6-0.2,2.5-0.2c1.4,0,2.3,0.2,2.9,0.8c0.5,0.5,0.8,1.1,0.8,1.9c0,1.3-0.8,2.2-1.9,2.6v0
					c0.8,0.3,1.2,1,1.5,2c0.3,1.4,0.6,2.4,0.8,2.8h-1.3c-0.2-0.3-0.4-1.2-0.7-2.4c-0.3-1.4-0.8-1.9-2-2H216v4.3h-1.3L214.7,57.4
					L214.7,57.4z M216,62h1.3c1.4,0,2.3-0.8,2.3-1.9c0-1.3-0.9-1.9-2.3-1.9c-0.6,0-1.1,0.1-1.3,0.1L216,62L216,62z"/>
				<path d="M231.2,66.9c-0.6,0.2-1.7,0.6-3.1,0.6c-1.5,0-2.8-0.4-3.8-1.3c-0.9-0.8-1.4-2.2-1.4-3.7c0-3,2.1-5.2,5.4-5.2
					c1.2,0,2.1,0.2,2.5,0.5l-0.3,1.1c-0.5-0.2-1.2-0.4-2.2-0.4c-2.4,0-4,1.5-4,4c0,2.5,1.5,4.1,3.9,4.1c0.9,0,1.4-0.1,1.7-0.3v-3h-2
					v-1h3.3V66.9z"/>
				<path d="M235.5,64.2l-1,3.1h-1.3l3.4-10h1.6l3.4,10h-1.4l-1.1-3.1H235.5z M238.8,63.2l-1-2.9c-0.2-0.7-0.4-1.2-0.5-1.8h0
					c-0.1,0.6-0.3,1.2-0.5,1.8l-1,2.9L238.8,63.2L238.8,63.2z"/>
				<path d="M243.8,67.3v-10h1.4l3.2,5.1c0.7,1.2,1.3,2.2,1.8,3.3l0,0c-0.1-1.3-0.1-2.6-0.1-4.1v-4.2h1.2v10H250l-3.2-5.1
					c-0.7-1.1-1.4-2.3-1.9-3.3l0,0c0.1,1.3,0.1,2.5,0.1,4.1v4.3L243.8,67.3L243.8,67.3z"/>
				<path d="M255.6,57.3v10h-1.3v-10H255.6z"/>
				<path d="M257.9,66.6l5.6-8.1v0h-5.1v-1.1h6.8v0.8l-5.5,8.1v0h5.6v1.1h-7.3L257.9,66.6L257.9,66.6z"/>
				<path d="M269.2,64.2l-1,3.1h-1.3l3.4-10h1.6l3.4,10h-1.4l-1.1-3.1H269.2z M272.5,63.2l-1-2.9c-0.2-0.7-0.4-1.2-0.5-1.8h0
					c-0.1,0.6-0.3,1.2-0.5,1.8l-1,2.9L272.5,63.2L272.5,63.2z"/>
				<path d="M278.2,58.4h-3v-1.1h7.4v1.1h-3.1v8.9h-1.3L278.2,58.4L278.2,58.4z"/>
				<path d="M285.7,57.3v10h-1.3v-10H285.7z"/>
				<path d="M297.3,62.2c0,3.5-2.1,5.3-4.7,5.3c-2.6,0-4.5-2-4.5-5.1c0-3.2,2-5.3,4.7-5.3C295.5,57.2,297.3,59.2,297.3,62.2z
					 M289.5,62.4c0,2.1,1.2,4.1,3.2,4.1c2,0,3.2-1.9,3.2-4.2c0-2-1-4.1-3.2-4.1C290.6,58.2,289.5,60.2,289.5,62.4z"/>
				<path d="M299.7,67.3v-10h1.4l3.2,5.1c0.7,1.2,1.3,2.2,1.8,3.3l0,0c-0.1-1.3-0.1-2.6-0.1-4.1v-4.2h1.2v10h-1.3l-3.2-5.1
					c-0.7-1.1-1.4-2.3-1.9-3.3l0,0c0.1,1.3,0.1,2.5,0.1,4.1v4.3L299.7,67.3L299.7,67.3z"/>
			</g>
		</g>
		<g>
			<path class="st0" d="M27.2,48.8c-0.4-2.8-3.1-5-6.2-5c-5.6,0-7.7,4.8-7.7,9.7c0,4.7,2.1,9.5,7.7,9.5c3.8,0,5.9-2.6,6.4-6.3h6
				C32.9,63.8,28,68.3,21,68.3c-8.8,0-13.9-6.5-13.9-14.7c0-8.4,5.2-15,13.9-15c6.2,0,11.5,3.6,12.2,10.2L27.2,48.8L27.2,48.8z"/>
			<path class="st0" d="M36.8,39.3h11.1c7.1,0,9.8,4.5,9.8,9.1s-2.7,9.1-9.8,9.1H43v10.2h-6.2L36.8,39.3L36.8,39.3z M43,52.6h3.2
				c2.9,0,5.5-0.6,5.5-4.2s-2.6-4.2-5.5-4.2H43V52.6z"/>
			<path class="st0" d="M60.6,39.3h17.9v5.2H66.8v6.1h10.4v4.8H66.8v7h12v5.2H60.6C60.6,67.6,60.6,39.3,60.6,39.3z"/>
			<path class="st0" d="M94.7,38.6c8.8,0,13.9,6.5,13.9,15c0,8.2-5.2,14.7-13.9,14.7s-13.9-6.5-13.9-14.7
				C80.8,45.1,85.9,38.6,94.7,38.6z M94.7,63c5.6,0,7.7-4.8,7.7-9.5c0-5-2.1-9.7-7.7-9.7S87,48.6,87,53.5C87,58.3,89.1,63,94.7,63z"
				/>
		</g>
		<line class="st1" x1="117.7" y1="33.7" x2="117.7" y2="72.3"/>
	</g>
	<text transform="matrix(1 0 0 1 102.9234 91.1489)" class="st2 st3 st4">IRS CERTIFIED</text>
</g>
<g id="Layer_2">
</g>
</svg>
