<?xml version="1.0" encoding="utf-8"?>
<!-- Generator: Adobe Illustrator 23.0.1, SVG Export Plug-In . SVG Version: 6.00 Build 0)  -->
<svg version="1.1" id="Layer_1" xmlns="http://www.w3.org/2000/svg" xmlns:xlink="http://www.w3.org/1999/xlink" x="0px" y="0px"
	 viewBox="0 0 144 126" style="enable-background:new 0 0 144 126;" xml:space="preserve">
<style type="text/css">
	.st0{fill:#F5B335;}
</style>
<g>
	<g>
		<path class="st0" d="M124.5,100.2H21.4V24.4h103.1V100.2z M22.8,98.9h100.4V25.7H22.8V98.9z"/>
	</g>
	<g>
		<g>
			<g>
				<path d="M51.5,52.8c0.3,1.1,0.6,2.7,0.9,4.7c0,0.1-0.1,0.1-0.1,0.1c-0.1,0-0.1,0-0.2-0.1c-0.7-1.1-1.4-2-2-2.5s-1.3-1-1.9-1.2
					s-1.8-0.4-3.3-0.4c-1.5,0-2.7,0.1-3.5,0.3c-0.1,0.1-0.1,0.3-0.1,0.6c0,0.1,0,0.2,0,0.4c-0.1,0.8-0.2,3-0.2,6.5
					c0,0.2,0,0.4,0,0.6c0.8,0,1.3,0,1.6,0c1.3,0,2.2-0.2,2.8-0.6c0.6-0.4,1.1-1.2,1.5-2.5c0.1-0.2,0.2-0.3,0.3-0.3
					c0.2,0,0.3,0.2,0.3,0.4l-0.1,0.6c-0.1,0.8-0.1,1.6-0.1,2.5c0,1.4,0,2.6,0.1,3.7c0,0.3-0.1,0.5-0.3,0.5c-0.1,0-0.2-0.1-0.3-0.4
					c-0.2-1.2-0.7-2-1.3-2.6c-0.7-0.5-2.2-0.8-4.4-0.8c0,0.7-0.1,1.9-0.1,3.6c0,2.1,0.1,3.5,0.2,4.1c0.2,0.6,0.5,1,1.1,1.4
					c0.6,0.3,1.6,0.5,2.9,0.5c3.9,0,6.4-1.4,7.6-4.1c0.1-0.3,0.3-0.5,0.4-0.5c0.2,0,0.2,0.1,0.2,0.3c0,0.1,0,0.2-0.1,0.4
					c-0.1,0.2-0.2,0.9-0.4,2.2c-0.1,0.3-0.2,1.1-0.6,2.4l-6.3,0c-0.9,0-2.2,0-4-0.1s-3.3-0.1-4.7-0.1c-1.4,0-2.1,0-2.1-0.1
					c-0.1-0.1-0.1-0.1-0.1-0.2c0-0.2,0.2-0.3,0.5-0.3c1.1,0,1.8-0.3,2.2-0.9c0.3-0.6,0.5-2.1,0.5-4.4l0-3.1l0.1-2.9
					c0-0.6,0-1.7-0.1-3.3c-0.1-1.6-0.1-2.6-0.2-2.8c-0.1-0.2-0.2-0.5-0.5-0.7s-0.8-0.5-1.7-0.7c-0.3-0.1-0.4-0.2-0.4-0.3
					c0-0.2,0.2-0.2,0.5-0.2l3.1,0.2c1.1,0,3.8,0.1,8.1,0.1C50,52.7,51.4,52.7,51.5,52.8L51.5,52.8z"/>
			</g>
			<g>
				<path d="M66.6,53.7c0.3-0.3,0.5-0.5,0.5-0.8c0.1-0.2,0.2-0.4,0.3-0.4c0.1,0,0.2,0,0.3,0.2c0.1,0.4,0.2,1.1,0.3,2.2l0.4,2.8
					c0,0.2-0.1,0.3-0.3,0.3c-0.1,0-0.2-0.1-0.3-0.3c-0.5-1.3-1.3-2.4-2.4-3.3c-1.1-0.9-2.2-1.3-3.4-1.3c-1.2,0-2.2,0.4-2.8,1.1
					c-0.6,0.7-0.9,1.5-0.9,2.3c0,1,0.3,1.8,1,2.3c0.7,0.5,2.1,1.1,4.2,1.8c1.6,0.5,2.7,1,3.5,1.4c0.8,0.5,1.4,1.1,1.9,1.9
					c0.5,0.8,0.8,1.7,0.8,2.6c0,1.6-0.7,3-2,4.3c-1.3,1.3-2.9,1.9-4.8,1.9c-1.7,0-3.4-0.5-5.2-1.6c-0.3,0.3-0.6,0.6-0.7,1
					c-0.1,0.3-0.2,0.5-0.4,0.5c-0.2,0-0.3-0.2-0.4-0.6c-0.1-0.4-0.2-2.4-0.4-5.9c0-0.1,0.2-0.2,0.3-0.2c0.2,0,0.3,0.1,0.4,0.3
					c1.6,3.9,3.7,5.9,6.5,5.9c1.4,0,2.5-0.4,3.2-1.2c0.8-0.8,1.2-1.8,1.2-2.9c0-0.8-0.2-1.4-0.6-2.1c-0.4-0.6-1-1.1-1.7-1.5
					c-0.7-0.4-1.8-0.8-3.3-1.3c-1.9-0.6-3.2-1.2-3.9-1.7c-0.7-0.5-1.2-1.2-1.5-1.9c-0.3-0.7-0.5-1.4-0.5-2c0-1.3,0.6-2.5,1.8-3.6
					c1.2-1,2.7-1.6,4.5-1.6c0.7,0,1.4,0.1,2.1,0.3C65,52.9,65.8,53.2,66.6,53.7L66.6,53.7z"/>
			</g>
			<g>
				<path d="M80,55.5c-0.9,1.9-2,4.7-3.3,8.3c1,0,1.8-0.1,2.2-0.1l4.2,0.1c-0.4-1-0.9-2.4-1.6-4.2C80.8,57.6,80.3,56.2,80,55.5
					L80,55.5z M80.6,52.2h0.7C82.5,54.5,84,58.4,86,64c1.3,3.6,2.1,5.8,2.6,6.6c0.5,0.8,1.2,1.3,2.3,1.4c0.3,0,0.5,0.2,0.5,0.3
					c0,0.2-0.1,0.2-0.3,0.2l-0.2,0c-0.9-0.1-2.1-0.2-3.5-0.2c-2.2,0-3.6,0.1-4.2,0.2c-0.3,0-0.5-0.1-0.5-0.3c0-0.1,0.1-0.2,0.4-0.3
					c0.9-0.1,1.4-0.2,1.8-0.4c0.3-0.2,0.5-0.6,0.5-1c0-0.4-0.3-1.5-0.9-3.3l-0.9-2.6c-0.5,0-2.9,0-7,0.1c-1,2.8-1.6,4.6-1.6,5.3
					c0,0.6,0.3,1.1,0.8,1.4c0.5,0.3,1,0.5,1.5,0.5c0.4,0,0.6,0.1,0.6,0.3c0,0.1-0.1,0.2-0.2,0.2c-1.6-0.1-2.6-0.2-2.9-0.2
					c-1.7,0-2.8,0-3.4,0c-0.3,0-0.5-0.1-0.5-0.3c0-0.2,0.1-0.3,0.4-0.3c1.2-0.2,2.1-0.9,2.7-2.3c0.6-1.4,1.6-3.9,2.9-7.7
					C77.9,58.5,79.2,55.3,80.6,52.2L80.6,52.2z"/>
			</g>
			<g>
				<path d="M108.1,53.9c0.6-0.5,0.9-0.9,0.9-1c0.1-0.2,0.2-0.4,0.4-0.4c0.2,0,0.3,0.2,0.3,0.5l0.3,5.3c0,0.3,0,0.5,0,0.6
					S110,59,109.9,59c-0.2,0-0.3-0.2-0.5-0.7c-0.7-1.6-1.6-2.9-2.8-4c-1.2-1-2.5-1.5-3.9-1.5c-1.2,0-2.4,0.4-3.4,1.2
					c-1,0.8-1.8,1.9-2.4,3.4c-0.6,1.5-0.9,3-0.9,4.7c0,2.9,0.8,5.2,2.4,7s3.3,2.7,5.3,2.7c1.3,0,2.5-0.4,3.6-1.2
					c1.1-0.8,1.9-1.8,2.5-2.9c0.1-0.3,0.3-0.4,0.5-0.4c0.2,0,0.3,0.1,0.3,0.4c0,0.3-0.4,0.9-1.1,1.9c-0.8,1-1.8,1.8-3,2.4
					s-2.6,0.9-4,0.9c-1.7,0-3.3-0.4-4.8-1.3s-2.7-2-3.6-3.6c-0.9-1.5-1.3-3.3-1.3-5.3c0-2,0.4-3.8,1.3-5.4c0.9-1.6,2.1-2.8,3.6-3.7
					c1.6-0.9,3.2-1.3,4.8-1.3c0.9,0,1.8,0.1,2.7,0.4C106.2,52.9,107.1,53.3,108.1,53.9L108.1,53.9z"/>
			</g>
		</g>
		<g>
			<path d="M34.8,76.6h75.9 M34.8,48.9h75.9"/>
			<path class="st0" d="M110.7,77.2H34.8v-1.3h75.9V77.2z M110.7,49.5H34.8v-1.3h75.9V49.5z"/>
		</g>
		<g>
			<g>
				<path d="M54.7,62.5c0,0.7-0.5,1.2-1.2,1.2s-1.2-0.5-1.2-1.2s0.5-1.2,1.2-1.2S54.7,61.9,54.7,62.5z"/>
			</g>
			<g>
				<path d="M73,62.5c0,0.7-0.5,1.2-1.2,1.2s-1.2-0.5-1.2-1.2s0.5-1.2,1.2-1.2C72.5,61.4,73,61.9,73,62.5z"/>
			</g>
			<g>
				<path d="M90.8,62.5c0,0.7-0.5,1.2-1.2,1.2s-1.2-0.5-1.2-1.2s0.5-1.2,1.2-1.2S90.8,61.9,90.8,62.5z"/>
			</g>
		</g>
	</g>
	<g>
		<g>
			<path d="M28.2,94v-0.4c0.5-0.1,0.9-0.3,1.2-0.6c0.3-0.3,0.7-1.2,1.3-2.8l4.2-10h0.4l5.1,11.5c0.3,0.8,0.6,1.2,0.8,1.4
				s0.5,0.3,1,0.4V94h-5.2v-0.4c0.6-0.1,1-0.1,1.2-0.2c0.2-0.1,0.3-0.3,0.3-0.6c0-0.1,0-0.3-0.1-0.5s-0.2-0.5-0.3-0.8l-0.8-2H32
				c-0.5,1.3-0.8,2.1-0.9,2.4c-0.1,0.3-0.2,0.5-0.2,0.7c0,0.3,0.1,0.6,0.4,0.7c0.2,0.1,0.5,0.1,1,0.2V94L28.2,94L28.2,94z M37,88.8
				l-2.3-5.6l-2.3,5.6H37z"/>
		</g>
		<g>
			<path d="M49.8,85.3c0.6,0.4,0.9,0.9,0.9,1.4c0,0.2-0.1,0.4-0.2,0.6s-0.4,0.3-0.7,0.3c-0.2,0-0.4-0.1-0.6-0.2
				c-0.2-0.2-0.3-0.4-0.4-0.7l-0.1-0.5c-0.1-0.3-0.2-0.6-0.4-0.8c-0.2-0.1-0.5-0.2-0.9-0.2c-0.8,0-1.4,0.3-1.9,1
				c-0.5,0.7-0.8,1.5-0.8,2.6c0,1,0.3,1.9,0.9,2.7c0.6,0.8,1.3,1.2,2.3,1.2c0.7,0,1.3-0.2,1.8-0.7c0.3-0.3,0.7-0.7,1-1.2L51,91
				c-0.4,0.8-0.8,1.4-1.2,1.9c-0.8,0.9-1.7,1.3-2.8,1.3c-1,0-1.9-0.4-2.7-1.2c-0.8-0.8-1.2-1.9-1.2-3.3c0-1.4,0.4-2.6,1.3-3.5
				s2-1.5,3.3-1.5C48.5,84.6,49.2,84.8,49.8,85.3z"/>
		</g>
		<g>
			<path d="M58.8,85.3c0.6,0.4,0.9,0.9,0.9,1.4c0,0.2-0.1,0.4-0.2,0.6s-0.4,0.3-0.7,0.3c-0.2,0-0.4-0.1-0.6-0.2
				c-0.2-0.2-0.3-0.4-0.4-0.7l-0.1-0.5c-0.1-0.3-0.2-0.6-0.4-0.8c-0.2-0.1-0.5-0.2-0.9-0.2c-0.8,0-1.4,0.3-1.9,1
				c-0.5,0.7-0.8,1.5-0.8,2.6c0,1,0.3,1.9,0.9,2.7c0.6,0.8,1.3,1.2,2.3,1.2c0.7,0,1.3-0.2,1.8-0.7c0.3-0.3,0.7-0.7,1-1.2L60,91
				c-0.4,0.8-0.8,1.4-1.2,1.9c-0.8,0.9-1.7,1.3-2.8,1.3c-1,0-1.9-0.4-2.7-1.2c-0.8-0.8-1.2-1.9-1.2-3.3c0-1.4,0.4-2.6,1.3-3.5
				s2-1.5,3.3-1.5C57.5,84.6,58.2,84.8,58.8,85.3z"/>
		</g>
		<g>
			<path d="M60.8,93.7c0.6-0.1,1-0.2,1.2-0.3c0.2-0.2,0.3-0.5,0.3-1v-4.5c0-0.7-0.1-1.1-0.2-1.4C62,86.1,61.7,86,61.4,86
				c-0.1,0-0.2,0-0.3,0s-0.2,0-0.3,0.1v-0.3c0.4-0.1,0.8-0.3,1.2-0.4c0.4-0.1,0.7-0.2,0.8-0.3c0.3-0.1,0.7-0.3,1-0.4
				c0.1,0,0.1,0,0.1,0.1c0,0,0,0.1,0,0.2v1.6c0.4-0.6,0.8-1.1,1.2-1.4c0.4-0.3,0.8-0.5,1.2-0.5c0.3,0,0.6,0.1,0.8,0.3
				c0.2,0.2,0.3,0.5,0.3,0.8c0,0.3-0.1,0.5-0.2,0.7s-0.4,0.3-0.6,0.3c-0.2,0-0.5-0.1-0.8-0.3c-0.2-0.2-0.5-0.3-0.6-0.3
				c-0.2,0-0.5,0.2-0.8,0.6c-0.3,0.4-0.5,0.8-0.5,1.2v4.5c0,0.6,0.1,1,0.4,1.2c0.3,0.2,0.7,0.3,1.3,0.3V94h-4.9L60.8,93.7L60.8,93.7
				z"/>
		</g>
		<g>
			<path d="M74.6,85.7c0.7,0.7,1.1,1.6,1.1,2.8h-6.3c0.1,1.5,0.4,2.7,1,3.3c0.6,0.7,1.4,1.1,2.2,1.1c0.7,0,1.3-0.2,1.8-0.6
				c0.5-0.4,0.9-0.9,1.3-1.6l0.4,0.1c-0.3,0.8-0.8,1.6-1.5,2.3c-0.7,0.7-1.7,1.1-2.7,1.1c-1.2,0-2.2-0.5-2.9-1.4s-1-2-1-3.2
				c0-1.3,0.4-2.5,1.2-3.4c0.8-1,1.8-1.4,3.1-1.4C73,84.7,73.9,85,74.6,85.7z M69.8,86.4c-0.2,0.4-0.4,0.8-0.5,1.3h4.2
				c-0.1-0.7-0.2-1.2-0.4-1.5c-0.3-0.6-0.9-0.9-1.6-0.9C70.8,85.4,70.2,85.7,69.8,86.4z"/>
		</g>
		<g>
			<path d="M82.6,84.9c0.3,0.1,0.5,0.3,0.8,0.6v-3.2c0-0.4,0-0.7-0.1-0.8c-0.1-0.2-0.3-0.2-0.6-0.2c-0.1,0-0.1,0-0.2,0
				c-0.1,0-0.2,0-0.4,0V81l0.8-0.2c0.3-0.1,0.6-0.2,0.9-0.2c0.3-0.1,0.6-0.2,0.8-0.2c0.1,0,0.3-0.1,0.5-0.2l0.1,0l0,1
				c0,0.4,0,0.8,0,1.2c0,0.4,0,0.8,0,1.2l0,8.1c0,0.4,0.1,0.7,0.2,0.9s0.4,0.3,0.8,0.3c0.1,0,0.1,0,0.2,0s0.1,0,0.2,0v0.3
				c0,0-0.5,0.2-1.4,0.5l-1.6,0.6l-0.1-0.1v-1.2c-0.4,0.4-0.7,0.7-1,0.9c-0.5,0.3-1,0.4-1.7,0.4c-1.1,0-2-0.4-2.7-1.3
				C77.3,92,77,91,77,89.9c0-1.4,0.4-2.7,1.3-3.7s1.9-1.5,3.1-1.5C81.8,84.6,82.2,84.7,82.6,84.9z M82.9,92.7
				c0.3-0.3,0.5-0.6,0.5-0.9v-4.3c0-0.9-0.2-1.5-0.7-1.8s-0.9-0.5-1.4-0.5c-0.8,0-1.5,0.4-1.9,1.1C78.9,87,78.7,88,78.7,89
				c0,1.1,0.2,2,0.7,2.8s1.2,1.2,2.2,1.2C82.2,93.1,82.6,93,82.9,92.7z"/>
		</g>
		<g>
			<path d="M87.1,93.7c0.7-0.1,1.2-0.2,1.3-0.4c0.2-0.2,0.3-0.7,0.3-1.4v-4.7c0-0.4,0-0.7-0.1-0.9c-0.1-0.3-0.3-0.4-0.6-0.4
				c-0.1,0-0.1,0-0.2,0s-0.3,0.1-0.6,0.2v-0.3l0.4-0.1c1.2-0.4,2-0.7,2.4-0.8c0.2-0.1,0.3-0.1,0.4-0.1c0,0.1,0,0.1,0,0.2v7.1
				c0,0.8,0.1,1.2,0.3,1.4c0.2,0.2,0.6,0.3,1.2,0.4V94H87L87.1,93.7L87.1,93.7z M88.6,80.4c0.2-0.2,0.4-0.3,0.7-0.3
				c0.3,0,0.5,0.1,0.7,0.3c0.2,0.2,0.3,0.4,0.3,0.7c0,0.3-0.1,0.5-0.3,0.7c-0.2,0.2-0.4,0.3-0.7,0.3c-0.3,0-0.5-0.1-0.7-0.3
				c-0.2-0.2-0.3-0.4-0.3-0.7C88.3,80.9,88.4,80.6,88.6,80.4z"/>
		</g>
		<g>
			<path d="M97.5,84.8v0.7h-2l0,5.7c0,0.5,0,0.9,0.1,1.1c0.2,0.5,0.5,0.7,0.9,0.7c0.2,0,0.4-0.1,0.6-0.2s0.4-0.3,0.6-0.5l0.3,0.2
				l-0.2,0.3c-0.3,0.5-0.7,0.8-1.1,1c-0.4,0.2-0.8,0.3-1.1,0.3c-0.8,0-1.3-0.3-1.6-1c-0.1-0.4-0.2-0.9-0.2-1.6v-6h-1.1
				c0,0-0.1,0-0.1-0.1c0,0,0-0.1,0-0.1c0-0.1,0-0.1,0-0.2c0,0,0.1-0.1,0.3-0.2c0.5-0.4,0.8-0.7,1-0.9c0.2-0.2,0.7-0.9,1.4-1.9
				c0.1,0,0.1,0,0.1,0c0,0,0,0.1,0,0.2v2.4L97.5,84.8L97.5,84.8z"/>
		</g>
		<g>
			<path d="M105.1,85.7c0.7,0.7,1.1,1.6,1.1,2.8h-6.3c0.1,1.5,0.4,2.7,1,3.3c0.6,0.7,1.4,1.1,2.2,1.1c0.7,0,1.3-0.2,1.8-0.6
				c0.5-0.4,0.9-0.9,1.3-1.6l0.4,0.1c-0.3,0.8-0.8,1.6-1.5,2.3c-0.7,0.7-1.7,1.1-2.7,1.1c-1.2,0-2.2-0.5-2.9-1.4s-1-2-1-3.2
				c0-1.3,0.4-2.5,1.2-3.4c0.8-1,1.8-1.4,3.1-1.4C103.6,84.7,104.4,85,105.1,85.7z M100.3,86.4c-0.2,0.4-0.4,0.8-0.5,1.3h4.2
				c-0.1-0.7-0.2-1.2-0.4-1.5c-0.3-0.6-0.9-0.9-1.6-0.9C101.3,85.4,100.7,85.7,100.3,86.4z"/>
		</g>
		<g>
			<path d="M113.1,84.9c0.3,0.1,0.5,0.3,0.8,0.6v-3.2c0-0.4,0-0.7-0.1-0.8c-0.1-0.2-0.3-0.2-0.6-0.2c-0.1,0-0.1,0-0.2,0
				c-0.1,0-0.2,0-0.4,0V81l0.8-0.2c0.3-0.1,0.6-0.2,0.9-0.2c0.3-0.1,0.6-0.2,0.8-0.2c0.1,0,0.3-0.1,0.5-0.2l0.1,0l0,1
				c0,0.4,0,0.8,0,1.2s0,0.8,0,1.2l0,8.1c0,0.4,0.1,0.7,0.2,0.9s0.4,0.3,0.8,0.3c0.1,0,0.1,0,0.2,0s0.1,0,0.2,0v0.3
				c0,0-0.5,0.2-1.4,0.5l-1.6,0.6l-0.1-0.1v-1.2c-0.4,0.4-0.7,0.7-1,0.9c-0.5,0.3-1,0.4-1.7,0.4c-1.1,0-2-0.4-2.7-1.3
				c-0.7-0.9-1.1-1.9-1.1-3c0-1.4,0.4-2.7,1.3-3.7s1.9-1.5,3.1-1.5C112.3,84.6,112.7,84.7,113.1,84.9z M113.4,92.7
				c0.3-0.3,0.5-0.6,0.5-0.9v-4.3c0-0.9-0.2-1.5-0.7-1.8s-0.9-0.5-1.4-0.5c-0.8,0-1.5,0.4-1.9,1.1c-0.5,0.7-0.7,1.7-0.7,2.7
				c0,1.1,0.2,2,0.7,2.8s1.2,1.2,2.2,1.2C112.7,93.1,113.1,93,113.4,92.7z"/>
		</g>
	</g>
	<g>
		<g>
			<path d="M42.1,43.2c0.8,0,1.3-0.2,1.6-0.4c0.2-0.2,0.4-0.7,0.4-1.5v-9c0-0.8-0.1-1.2-0.4-1.5c-0.2-0.2-0.8-0.3-1.6-0.4v-0.4h5.7
				c1.6,0,2.9,0.3,3.9,0.8c1,0.5,1.4,1.4,1.4,2.7c0,1-0.3,1.7-1,2.2c-0.4,0.3-0.9,0.5-1.7,0.7c0.9,0.2,1.7,0.6,2.4,1.1
				c0.7,0.5,1,1.3,1,2.2c0,1.6-0.7,2.7-2.2,3.3c-0.8,0.3-1.7,0.5-2.9,0.5h-6.6V43.2z M49.8,35.8c0.9-0.4,1.3-1.1,1.3-2.1
				c0-1.2-0.5-2-1.5-2.5c-0.6-0.2-1.4-0.4-2.5-0.4c-0.4,0-0.7,0-0.8,0.1c-0.1,0.1-0.2,0.3-0.2,0.6v4.6l1.9,0
				C48.7,36.1,49.3,36,49.8,35.8z M50.4,42.2c0.7-0.4,1.1-1.2,1.1-2.3s-0.4-1.9-1.2-2.3c-0.8-0.4-1.9-0.6-3.1-0.6
				c-0.3,0-0.5,0-0.6,0c-0.1,0-0.2,0-0.4,0V42c0,0.3,0.1,0.6,0.3,0.7c0.2,0.1,0.7,0.2,1.4,0.2C48.8,42.8,49.7,42.6,50.4,42.2z"/>
		</g>
		<g>
			<path d="M57.1,35.6c0.8-0.9,1.9-1.4,3.2-1.4c1.3,0,2.4,0.4,3.3,1.3s1.3,2,1.3,3.4c0,1.3-0.4,2.5-1.2,3.4c-0.8,1-1.9,1.5-3.2,1.5
				c-1.3,0-2.3-0.5-3.2-1.4c-0.9-0.9-1.3-2.1-1.3-3.5C55.8,37.7,56.3,36.5,57.1,35.6z M58.7,35.4c-0.7,0.6-1,1.6-1,3.1
				c0,1.2,0.3,2.3,0.8,3.3c0.5,1,1.3,1.5,2.2,1.5c0.7,0,1.3-0.3,1.7-1s0.6-1.6,0.6-2.7c0-1.2-0.3-2.2-0.8-3.2
				c-0.5-1-1.2-1.5-2.2-1.5C59.5,34.9,59.1,35,58.7,35.4z"/>
		</g>
		<g>
			<path d="M65.9,43.3c0.5-0.1,0.8-0.2,1-0.3c0.2-0.2,0.3-0.6,0.3-1.2v-5c0-0.4,0-0.7-0.1-0.9c-0.1-0.2-0.4-0.4-0.8-0.4
				c-0.1,0-0.1,0-0.2,0s-0.1,0-0.2,0v-0.3c0.3-0.1,0.9-0.3,1.9-0.6l0.9-0.3c0.1,0,0.1,0,0.1,0s0,0.1,0,0.1v1.5
				c0.6-0.6,1.1-1,1.4-1.2c0.5-0.3,1.1-0.5,1.6-0.5c0.4,0,0.9,0.1,1.2,0.4c0.7,0.5,1.1,1.4,1.1,2.7v4.6c0,0.5,0.1,0.8,0.3,1
				c0.2,0.2,0.5,0.3,1,0.3v0.3h-4.2v-0.3c0.5-0.1,0.8-0.2,1-0.4c0.2-0.2,0.3-0.6,0.3-1.3v-4.2c0-0.6-0.1-1-0.3-1.4
				c-0.2-0.4-0.6-0.6-1.2-0.6c-0.4,0-0.8,0.1-1.2,0.4c-0.2,0.2-0.5,0.4-0.9,0.8v5.6c0,0.5,0.1,0.8,0.3,1s0.6,0.2,1,0.3v0.3h-4.3
				L65.9,43.3L65.9,43.3z"/>
		</g>
		<g>
			<path d="M81.8,34.5c0.3,0.1,0.5,0.3,0.8,0.6v-3.2c0-0.4,0-0.7-0.1-0.8c-0.1-0.1-0.3-0.2-0.6-0.2c-0.1,0-0.1,0-0.2,0
				c-0.1,0-0.2,0-0.4,0v-0.3l0.8-0.2c0.3-0.1,0.6-0.2,0.9-0.2c0.3-0.1,0.6-0.2,0.8-0.2c0.1,0,0.3-0.1,0.5-0.2l0.1,0l0,1
				c0,0.4,0,0.8,0,1.2c0,0.4,0,0.8,0,1.2l0,8.1c0,0.4,0.1,0.7,0.2,0.9c0.1,0.2,0.4,0.3,0.8,0.3c0.1,0,0.1,0,0.2,0s0.1,0,0.2,0v0.3
				c0,0-0.5,0.2-1.4,0.5l-1.6,0.6l-0.1-0.1v-1.2c-0.4,0.4-0.7,0.7-1,0.9c-0.5,0.3-1,0.5-1.7,0.5c-1.1,0-2-0.4-2.7-1.3
				c-0.7-0.9-1.1-1.9-1.1-3c0-1.4,0.4-2.7,1.3-3.7c0.8-1,1.9-1.5,3.1-1.5C81,34.2,81.4,34.3,81.8,34.5z M82.1,42.2
				c0.3-0.3,0.5-0.6,0.5-0.9v-4.3c0-0.9-0.2-1.5-0.7-1.8s-0.9-0.5-1.4-0.5c-0.8,0-1.5,0.4-1.9,1.1c-0.5,0.7-0.7,1.7-0.7,2.7
				c0,1.1,0.2,2,0.7,2.8c0.5,0.8,1.2,1.2,2.2,1.2C81.4,42.7,81.8,42.5,82.1,42.2z"/>
		</g>
		<g>
			<path d="M93,35.2c0.7,0.7,1.1,1.6,1.1,2.8h-6.3c0.1,1.5,0.4,2.7,1,3.3c0.6,0.7,1.4,1,2.2,1c0.7,0,1.3-0.2,1.8-0.5
				c0.5-0.4,0.9-0.9,1.3-1.5l0.4,0.1c-0.3,0.8-0.8,1.6-1.5,2.3c-0.7,0.7-1.7,1.1-2.7,1.1c-1.2,0-2.2-0.5-2.9-1.4s-1-2-1-3.2
				c0-1.3,0.4-2.5,1.2-3.5s1.8-1.5,3.1-1.5C91.4,34.3,92.2,34.6,93,35.2z M88.2,36c-0.2,0.4-0.4,0.8-0.5,1.3h4.2
				c-0.1-0.7-0.2-1.2-0.4-1.5c-0.3-0.6-0.9-0.9-1.6-0.9C89.2,35,88.6,35.3,88.2,36z"/>
		</g>
		<g>
			<path d="M101,34.5c0.3,0.1,0.5,0.3,0.8,0.6v-3.2c0-0.4,0-0.7-0.1-0.8c-0.1-0.1-0.3-0.2-0.6-0.2c-0.1,0-0.1,0-0.2,0
				c-0.1,0-0.2,0-0.4,0v-0.3l0.8-0.2c0.3-0.1,0.6-0.2,0.9-0.2c0.3-0.1,0.6-0.2,0.8-0.2c0.1,0,0.3-0.1,0.5-0.2l0.1,0l0,1
				c0,0.4,0,0.8,0,1.2c0,0.4,0,0.8,0,1.2l0,8.1c0,0.4,0.1,0.7,0.2,0.9c0.1,0.2,0.4,0.3,0.8,0.3c0.1,0,0.1,0,0.2,0s0.1,0,0.2,0v0.3
				c0,0-0.5,0.2-1.4,0.5l-1.6,0.6l-0.1-0.1v-1.2c-0.4,0.4-0.7,0.7-1,0.9c-0.5,0.3-1,0.5-1.7,0.5c-1.1,0-2-0.4-2.7-1.3
				c-0.7-0.9-1.1-1.9-1.1-3c0-1.4,0.4-2.7,1.3-3.7c0.8-1,1.9-1.5,3.1-1.5C100.2,34.2,100.6,34.3,101,34.5z M101.3,42.2
				c0.3-0.3,0.5-0.6,0.5-0.9v-4.3c0-0.9-0.2-1.5-0.7-1.8s-0.9-0.5-1.4-0.5c-0.8,0-1.5,0.4-1.9,1.1c-0.5,0.7-0.7,1.7-0.7,2.7
				c0,1.1,0.2,2,0.7,2.8c0.5,0.8,1.2,1.2,2.2,1.2C100.6,42.7,101,42.5,101.3,42.2z"/>
		</g>
	</g>
</g>
</svg>
