<?xml version="1.0" encoding="utf-8"?>
<!-- Generator: Adobe Illustrator 23.0.1, SVG Export Plug-In . SVG Version: 6.00 Build 0)  -->
<svg version="1.1" id="Layer_1" xmlns="http://www.w3.org/2000/svg" xmlns:xlink="http://www.w3.org/1999/xlink" x="0px" y="0px"
	 viewBox="0 0 266.4 126" style="enable-background:new 0 0 266.4 126;" xml:space="preserve">
<style type="text/css">
	.st0{fill:#416BA9;}
</style>
<g>
	<path class="st0" d="M107.5,40.2l13.8,0l-1.7-12.4L107.5,40.2z M117.5,11.9L89.9,40.2h13.4L119.1,24L117.5,11.9z"/>
	<g>
		<path class="st0" d="M115.2,42.2c-7.1,0-12.1,5.1-13.4,12c-1.3,6.6,1.8,11.9,8.8,11.9s12.1-5.3,13.4-11.9
			C125.3,47.3,122.3,42.2,115.2,42.2 M114.2,47.4c3.2,0,2.6,4.5,2.2,6.8c-0.4,2.2-1.5,6.5-4.8,6.5s-2.7-4.3-2.2-6.5
			C109.8,52,111.1,47.4,114.2,47.4 M97.6,65.8H80.2l4.5-23.2h17.4l-1,5.3H90.6l-0.7,3.4h8.5l-1,5.2h-8.5l-0.7,3.8h10.5L97.6,65.8z
			 M66.7,57.3h3.6c2.2,0,4.6-0.3,6.7-1.8c2-1.4,3.2-3.5,3.7-5.7c0.5-2.5-0.3-4.8-2.3-6.1c-1.8-1.2-4.3-1.2-6.6-1.2h-9.5l-4.5,23.2
			H65L66.7,57.3z M67.6,52.4l0.9-4.5h2.1c1.6,0,3.3,0.2,2.9,2.2c-0.4,2.2-2.4,2.3-4,2.3C69.5,52.4,67.6,52.4,67.6,52.4z M48.7,65.8
			H56l-2.8-23.2h-7.5L34,65.8h5.8l2.3-4.6h6.2L48.7,65.8z M44.3,56.1l3.2-6.7l0.6,6.7H44.3z M26,65.8l-4.6-10.9l-1.2-4.2l-0.1,0.1
			l0,0.3c0,1.5,0,2.3-0.3,3.9l-2.1,10.8H12l4.5-23.2h6.7l5.3,13l0.1-0.1l0.7-6.4l1.3-6.5h5.8l-4.5,23.2"/>
	</g>
	<polyline class="st0" points="96.9,68.1 69.3,96.4 67.6,84 83.1,68.1 	"/>
	<polygon class="st0" points="101.1,68.1 69.8,100.2 71.4,112.3 114.5,68.1 	"/>
	<polygon class="st0" points="65.5,68.1 67.1,80.2 78.9,68.1 	"/>
	<g>
		<path d="M141.3,52.1h-0.9c-1.8-2.2-4.9-5.9-5.4-6.6h0v6.6H134v-8.3h0.9c1.8,2.2,4.9,5.8,5.5,6.6h0v-6.6h0.9"/>
		<path d="M145.3,48.9c-0.9,0.3-1.4,0.7-1.4,1.5c0,0.6,0.4,1,0.9,1c0.8,0,1.7-0.9,1.6-2.8L145.3,48.9z M146,51.5
			c-0.4,0.4-0.9,0.8-1.5,0.8c-1,0-1.7-0.7-1.7-1.8c0-1,0.9-1.7,2.1-2.1l1.4-0.5c-0.1-0.7-0.6-1.2-1.2-1.2c-0.7,0-1.1,0.3-1.6,0.6
			l-0.4-0.5c0.6-0.6,1.2-0.8,2-0.8c0.9,0,2.2,0.3,2.2,2v2.6c0,0.5,0.1,1,0.3,1.5h-1.2c-0.1-0.2-0.2-0.6-0.2-1"/>
		<path d="M150.4,46.2h1.6v0.6h-1.6v3.4c0,0.8,0.2,1.3,0.8,1.3c0.4,0,0.6-0.1,0.8-0.2l0.3,0.6c-0.4,0.2-0.8,0.4-1.2,0.4
			c-1.2,0-1.8-0.7-1.8-1.9v-3.6h-0.8v-0.6h0.8v-1.4l1.1-0.4"/>
		<path d="M154.3,52.1h-1.1v-5.9h1.1V52.1z M153.1,44.2c0-0.3,0.2-0.6,0.7-0.6s0.7,0.3,0.7,0.6c0,0.3-0.1,0.7-0.7,0.7
			C153.2,44.9,153.1,44.5,153.1,44.2"/>
		<path d="M156.8,49.1c0,1.1,0.4,2.4,1.8,2.4c1.4,0,1.8-1.3,1.8-2.4c0-1.1-0.4-2.3-1.8-2.3C157.2,46.8,156.8,48,156.8,49.1
			 M155.6,49.1c0-1.9,1.4-3,2.9-3s2.9,1.1,2.9,3c0,1.8-1.2,3.2-2.9,3.2C156.8,52.2,155.6,50.9,155.6,49.1"/>
		<path d="M163.7,46.9c0.6-0.6,1.4-0.9,2-0.9c1.4,0,2.1,0.8,2.1,2.3v3.8h-1.1v-3.6c0-1.1-0.5-1.7-1.4-1.7c-0.8,0-1.6,0.6-1.6,1.7
			v3.6h-1.1v-5.9h1.1"/>
		<path d="M171.7,48.9c-0.9,0.3-1.4,0.7-1.4,1.5c0,0.6,0.4,1,0.9,1c0.8,0,1.7-0.9,1.6-2.8L171.7,48.9z M172.4,51.5
			c-0.4,0.4-0.9,0.8-1.5,0.8c-1,0-1.7-0.7-1.7-1.8c0-1,0.9-1.7,2.1-2.1l1.4-0.5c-0.1-0.7-0.6-1.2-1.2-1.2c-0.7,0-1.1,0.3-1.6,0.6
			l-0.4-0.5c0.6-0.6,1.2-0.8,2-0.8c0.9,0,2.2,0.3,2.2,2v2.6c0,0.5,0.1,1,0.3,1.5h-1.2c-0.1-0.2-0.2-0.6-0.2-1"/>
	</g>
	<rect x="175.5" y="43.4" width="1.1" height="8.7"/>
	<g>
		<path d="M185.7,48.8c-0.4-1.2-0.8-2.3-1.2-3.8h0c-0.4,1.5-0.9,2.7-1.3,3.8H185.7z M185.1,43.8l3.1,8.3h-1.3l-0.9-2.5h-3.2
			l-0.9,2.5h-1.1l3.4-8.3"/>
		<path d="M191.8,47.1c-0.4-0.3-0.8-0.4-1.1-0.4c-0.4,0-0.9,0.2-0.9,0.7s0.6,0.8,1.2,1.3c0.8,0.6,1.3,1.1,1.3,1.9c0,1-1,1.7-2.1,1.7
			c-0.7,0-1.4-0.3-1.8-0.8l0.5-0.6c0.3,0.3,0.8,0.6,1.3,0.6c0.5,0,1-0.3,1-0.8c0-0.7-0.6-1-1.2-1.4c-0.7-0.5-1.3-0.9-1.3-1.7
			c0-0.9,0.9-1.5,2-1.5c0.6,0,1.1,0.2,1.5,0.5"/>
		<path d="M196.4,47.1c-0.4-0.3-0.8-0.4-1.1-0.4c-0.4,0-0.9,0.2-0.9,0.7s0.6,0.8,1.2,1.3c0.8,0.6,1.3,1.1,1.3,1.9c0,1-1,1.7-2.1,1.7
			c-0.7,0-1.4-0.3-1.8-0.8l0.5-0.6c0.3,0.3,0.8,0.6,1.3,0.6c0.5,0,1-0.3,1-0.8c0-0.7-0.6-1-1.2-1.4c-0.7-0.5-1.3-0.9-1.3-1.7
			c0-0.9,0.9-1.5,2-1.5c0.6,0,1.1,0.2,1.5,0.5"/>
		<path d="M199,49.1c0,1.1,0.4,2.4,1.8,2.4c1.4,0,1.8-1.3,1.8-2.4c0-1.1-0.4-2.3-1.8-2.3C199.5,46.8,199,48,199,49.1 M197.9,49.1
			c0-1.9,1.4-3,2.9-3s2.9,1.1,2.9,3c0,1.8-1.2,3.2-2.9,3.2C199.1,52.2,197.9,50.9,197.9,49.1"/>
		<path d="M209.6,51.6c-0.6,0.4-1.3,0.6-1.8,0.6c-2.8,0-3.2-2.3-3.2-3.1c0-1.5,1-3.1,3.2-3.1c0.6,0,1.1,0.2,1.6,0.5l-0.4,0.6
			c-0.3-0.2-0.8-0.3-1.2-0.3c-1,0-2.1,0.6-2.1,2.3c0,1.2,0.6,2.4,2.1,2.4c0.5,0,1-0.1,1.4-0.4"/>
		<path d="M211.9,52.1h-1.1v-5.9h1.1V52.1z M210.7,44.2c0-0.3,0.2-0.6,0.7-0.6s0.7,0.3,0.7,0.6c0,0.3-0.1,0.7-0.7,0.7
			C210.8,44.9,210.7,44.5,210.7,44.2"/>
		<path d="M215.8,48.9c-0.9,0.3-1.4,0.7-1.4,1.5c0,0.6,0.4,1,0.9,1c0.8,0,1.7-0.9,1.6-2.8L215.8,48.9z M216.4,51.5
			c-0.4,0.4-0.9,0.8-1.5,0.8c-1,0-1.7-0.7-1.7-1.8c0-1,0.9-1.7,2.1-2.1l1.4-0.5c-0.1-0.7-0.6-1.2-1.2-1.2c-0.7,0-1.1,0.3-1.6,0.6
			l-0.4-0.5c0.6-0.6,1.2-0.8,2-0.8c0.9,0,2.2,0.3,2.2,2v2.6c0,0.5,0.1,1,0.3,1.5h-1.2c-0.1-0.2-0.2-0.6-0.2-1"/>
		<path d="M220.9,46.2h1.6v0.6h-1.6v3.4c0,0.8,0.2,1.3,0.8,1.3c0.4,0,0.6-0.1,0.8-0.2l0.3,0.6c-0.4,0.2-0.8,0.4-1.2,0.4
			c-1.2,0-1.8-0.7-1.8-1.9v-3.6H219v-0.6h0.8v-1.4l1.1-0.4"/>
		<path d="M224.7,52.1h-1.1v-5.9h1.1V52.1z M223.5,44.2c0-0.3,0.2-0.6,0.7-0.6s0.7,0.3,0.7,0.6c0,0.3-0.2,0.7-0.7,0.7
			C223.7,44.9,223.5,44.5,223.5,44.2"/>
		<path d="M227.2,49.1c0,1.1,0.4,2.4,1.8,2.4c1.4,0,1.8-1.3,1.8-2.4c0-1.1-0.4-2.3-1.8-2.3C227.7,46.8,227.2,48,227.2,49.1
			 M226.1,49.1c0-1.9,1.4-3,2.9-3c1.5,0,2.9,1.1,2.9,3c0,1.8-1.2,3.2-2.9,3.2C227.3,52.2,226.1,50.9,226.1,49.1"/>
		<path d="M234.4,46.9c0.6-0.6,1.4-0.9,2-0.9c1.4,0,2.1,0.8,2.1,2.3v3.8h-1.1v-3.6c0-1.1-0.5-1.7-1.4-1.7c-0.8,0-1.6,0.6-1.6,1.7
			v3.6h-1.1v-5.9h1.1"/>
		<path d="M134.7,62c0,1.1,0.4,2.4,1.8,2.4c1.4,0,1.8-1.3,1.8-2.4c0-1.1-0.4-2.3-1.8-2.3C135.1,59.7,134.7,60.9,134.7,62 M133.5,62
			c0-1.9,1.4-3,2.9-3s2.9,1.1,2.9,3c0,1.8-1.2,3.2-2.9,3.2C134.7,65.2,133.5,63.9,133.5,62"/>
		<path d="M140.8,65.1v-5.3h-0.9v-0.6h0.9v-0.7c0-1.6,1.1-2.1,1.7-2.1c0.3,0,0.7,0.1,0.9,0.2l-0.2,0.5c-0.2,0-0.3-0.1-0.6-0.1
			c-0.2,0-0.8,0-0.8,1v1.1h1.4v0.6h-1.4v5.3"/>
		<path d="M148.9,65.1h-1.1v-8.3h2.1c1.8,0,2.8,0.8,2.8,2.4c0,1.4-1.2,2.7-3.1,2.7h-0.4V61l0.4,0c1.1-0.1,1.8-0.7,1.8-1.9
			c0-0.9-0.5-1.6-1.8-1.6h-0.8"/>
		<path d="M155.1,59.9l0.4-0.5c0.2-0.2,0.6-0.4,0.9-0.4c0.3,0,0.6,0.2,1,0.6l-0.5,0.7c-0.3-0.1-0.5-0.2-0.8-0.2c-0.6,0-1,0.5-1,1.9
			v3.2H154v-5.9h1.1"/>
		<path d="M158.9,62c0,1.1,0.4,2.4,1.8,2.4c1.4,0,1.8-1.3,1.8-2.4c0-1.1-0.4-2.3-1.8-2.3C159.4,59.7,158.9,60.9,158.9,62 M157.8,62
			c0-1.9,1.4-3,2.9-3c1.5,0,2.9,1.1,2.9,3c0,1.8-1.2,3.2-2.9,3.2C158.9,65.2,157.8,63.9,157.8,62"/>
		<path d="M165,65.1v-5.3h-0.9v-0.6h0.9v-0.7c0-1.6,1.1-2.1,1.7-2.1c0.3,0,0.7,0.1,0.9,0.2l-0.2,0.5c-0.2,0-0.4-0.1-0.6-0.1
			c-0.2,0-0.8,0-0.8,1v1.1h1.4v0.6h-1.4v5.3"/>
		<path d="M172.2,61.4c0-0.9-0.4-1.7-1.3-1.7c-1.1,0-1.6,1-1.6,1.7H172.2z M169.2,62.2c0,1.2,0.8,2.3,2,2.3c0.6,0,1.2-0.2,1.6-0.5
			l0.3,0.6c-0.6,0.4-1.4,0.7-2,0.7c-1.9,0-3.1-1.1-3.1-3.2c0-2.1,1.5-3,2.8-3c1.8,0,2.4,1.6,2.3,3.2"/>
		<path d="M177.3,60.1c-0.4-0.3-0.8-0.4-1.1-0.4c-0.4,0-0.9,0.2-0.9,0.7s0.6,0.8,1.2,1.3c0.8,0.6,1.3,1.1,1.3,1.9c0,1-1,1.7-2.1,1.7
			c-0.7,0-1.4-0.3-1.8-0.8l0.5-0.6c0.4,0.3,0.8,0.6,1.3,0.6c0.5,0,1-0.3,1-0.8c0-0.7-0.6-1-1.2-1.4c-0.7-0.5-1.3-0.9-1.3-1.7
			c0-0.9,0.9-1.5,2-1.5c0.6,0,1.1,0.2,1.5,0.5"/>
		<path d="M181.9,60.1c-0.4-0.3-0.8-0.4-1.1-0.4c-0.4,0-0.9,0.2-0.9,0.7s0.6,0.8,1.2,1.3c0.8,0.6,1.3,1.1,1.3,1.9c0,1-1,1.7-2.1,1.7
			c-0.7,0-1.4-0.3-1.8-0.8l0.5-0.6c0.3,0.3,0.8,0.6,1.3,0.6c0.5,0,1-0.3,1-0.8c0-0.7-0.6-1-1.2-1.4c-0.7-0.5-1.3-0.9-1.3-1.7
			c0-0.9,0.9-1.5,2-1.5c0.6,0,1.1,0.2,1.5,0.5"/>
		<path d="M184.8,65.1h-1.1v-5.9h1.1V65.1z M183.6,57.2c0-0.3,0.2-0.6,0.7-0.6s0.7,0.3,0.7,0.6c0,0.3-0.1,0.7-0.7,0.7
			C183.8,57.9,183.6,57.5,183.6,57.2"/>
		<path d="M187.3,62c0,1.1,0.4,2.4,1.8,2.4c1.4,0,1.8-1.3,1.8-2.4c0-1.1-0.4-2.3-1.8-2.3C187.8,59.7,187.3,60.9,187.3,62 M186.2,62
			c0-1.9,1.4-3,2.9-3c1.5,0,2.9,1.1,2.9,3c0,1.8-1.2,3.2-2.9,3.2C187.4,65.2,186.2,63.9,186.2,62"/>
		<path d="M194.4,59.9c0.6-0.6,1.4-0.9,2-0.9c1.4,0,2.1,0.8,2.1,2.3v3.8h-1.1v-3.6c0-1.1-0.5-1.7-1.4-1.7c-0.8,0-1.6,0.6-1.6,1.7
			v3.6h-1.1v-5.9h1.1"/>
		<path d="M202.5,61.9c-0.9,0.3-1.4,0.7-1.4,1.5c0,0.6,0.4,1,0.9,1c0.8,0,1.7-0.9,1.6-2.8L202.5,61.9z M203.1,64.4
			c-0.4,0.4-0.9,0.8-1.5,0.8c-1,0-1.7-0.7-1.7-1.8c0-1,0.9-1.7,2.1-2.1l1.4-0.5c-0.1-0.7-0.6-1.2-1.2-1.2c-0.7,0-1.1,0.3-1.6,0.6
			l-0.4-0.5c0.6-0.6,1.2-0.8,2-0.8c0.9,0,2.2,0.3,2.2,2v2.6c0,0.5,0.1,1,0.3,1.5h-1.2c-0.1-0.2-0.2-0.6-0.2-1"/>
	</g>
	<rect x="206.3" y="56.3" width="1.1" height="8.7"/>
	<polyline points="216.7,57.6 213.8,57.6 213.8,60.3 216.7,60.3 216.7,61.1 213.8,61.1 213.8,64.2 217.2,64.2 217.2,65.1 
		212.6,65.1 212.6,56.7 216.7,56.7 	"/>
	<g>
		<path d="M219.5,59.9c0.5-0.6,1.2-0.9,1.9-0.9c0.9,0,1.5,0.4,1.9,0.9c0.6-0.5,1.4-0.9,2-0.9c1.3,0,2,0.9,2,2.1v4h-1.1v-3.5
			c0-0.9-0.2-1.7-1.3-1.7c-0.9,0-1.5,0.5-1.5,1.7v3.6h-1.1v-3.5c0-1.1-0.5-1.7-1.3-1.7c-0.9,0-1.5,0.6-1.5,1.7v3.5h-1.1v-5.9h1.1"/>
		<path d="M233.6,61.9c0-1.1-0.6-2.2-1.6-2.2c-1.2,0-1.9,0.9-1.9,2.5c0,1.1,0.5,2.2,1.9,2.2C233.3,64.4,233.6,63,233.6,61.9
			 M230.1,60L230.1,60c0.5-0.7,1.3-1.1,2-1.1c2.3,0,2.7,2.1,2.7,2.9c0,1.8-1.1,3.3-2.8,3.3c-0.8,0-1.4-0.4-1.8-0.9h0V68H229v-8.9
			h1.1"/>
	</g>
	<rect x="236.1" y="56.3" width="1.1" height="8.7"/>
	<g>
		<path d="M239.7,62c0,1.1,0.4,2.4,1.8,2.4c1.4,0,1.8-1.3,1.8-2.4c0-1.1-0.4-2.3-1.8-2.3C240.2,59.7,239.7,60.9,239.7,62 M238.6,62
			c0-1.9,1.4-3,2.9-3s2.9,1.1,2.9,3c0,1.8-1.2,3.2-2.9,3.2C239.8,65.2,238.6,63.9,238.6,62"/>
		<path d="M246.1,59c0.6,1.5,1.2,3,1.8,4.8h0c0.6-1.8,1.2-3.3,1.9-4.8l0.9,0.2l-3.1,6.9c-0.6,1.3-1.3,1.9-2.3,1.9h-0.5v-0.8h0.4
			c0.7,0,1.3-0.2,2.1-2.5l-2.3-5.4"/>
		<path d="M255.4,61.4c0-0.9-0.4-1.7-1.3-1.7c-1.1,0-1.6,1-1.6,1.7H255.4z M252.4,62.2c0,1.2,0.8,2.3,2,2.3c0.6,0,1.2-0.2,1.6-0.5
			l0.3,0.6c-0.6,0.4-1.4,0.7-2,0.7c-1.9,0-3.1-1.1-3.1-3.2c0-2.1,1.5-3,2.8-3c1.8,0,2.4,1.6,2.3,3.2"/>
		<path d="M258.7,59.9l0.4-0.5c0.2-0.2,0.6-0.4,0.9-0.4c0.3,0,0.7,0.2,1,0.6l-0.5,0.7c-0.3-0.1-0.5-0.2-0.8-0.2c-0.5,0-1,0.5-1,1.9
			v3.2h-1.1v-5.9h1"/>
		<path d="M140,73.8c0-1.6-0.8-3.3-2.9-3.3s-2.9,1.8-2.9,3.3c0,1.6,0.7,3.6,2.9,3.6C139.2,77.4,140,75.4,140,73.8 M132.9,73.8
			c0-2.3,1.8-4.2,4.2-4.2c2.4,0,4.2,1.8,4.2,4.2c0,2.5-1.6,4.4-4.2,4.4C134.5,78.2,132.9,76.2,132.9,73.8"/>
		<path d="M143.7,72.9l0.4-0.4c0.2-0.2,0.6-0.4,0.9-0.4c0.3,0,0.6,0.2,1,0.6l-0.5,0.7c-0.3-0.1-0.5-0.2-0.8-0.2c-0.6,0-1,0.6-1,1.9
			v3.2h-1.1v-5.9h1.1"/>
		<path d="M151.1,74.9c0-1.1-0.6-2.2-1.8-2.2c-1.2,0-1.8,1-1.8,2.2c0,1.3,0.5,2.5,1.7,2.5C150.6,77.4,151.1,76.2,151.1,74.9
			 M152.2,77.8c0,2.3-1.4,3.2-3,3.2c-0.9,0-1.8-0.2-2.4-0.6l0.3-0.7c0.7,0.4,1.4,0.5,2.1,0.5c1.2,0,2-0.8,2-2.3v-0.8h0
			c-0.4,0.6-1.1,1.1-2,1.1c-1.6,0-2.7-1.3-2.7-3.2c0-1.5,1.1-3,2.8-3c0.7,0,1.5,0.4,1.8,1h0v-0.8h1.1"/>
		<path d="M156,74.9c-0.9,0.3-1.4,0.7-1.4,1.5c0,0.6,0.4,1,0.9,1c0.8,0,1.7-0.9,1.6-2.8L156,74.9z M156.7,77.4
			c-0.4,0.4-0.9,0.8-1.5,0.8c-1,0-1.7-0.7-1.7-1.8c0-1,0.9-1.7,2.1-2.1l1.4-0.4c-0.1-0.7-0.6-1.2-1.2-1.2c-0.7,0-1.1,0.3-1.6,0.6
			l-0.4-0.5c0.6-0.6,1.2-0.8,2-0.8c0.9,0,2.2,0.3,2.2,2v2.6c0,0.4,0.1,1,0.3,1.4h-1.2c-0.1-0.2-0.2-0.6-0.2-1"/>
		<path d="M160.9,72.9c0.6-0.6,1.4-0.9,2-0.9c1.4,0,2.1,0.8,2.1,2.3v3.8H164v-3.6c0-1.1-0.5-1.7-1.4-1.7c-0.8,0-1.6,0.6-1.6,1.7v3.6
			h-1.1v-5.9h1.1"/>
		<path d="M167.9,78.1h-1.1v-5.9h1.1V78.1z M166.6,70.2c0-0.3,0.2-0.6,0.7-0.6s0.7,0.3,0.7,0.6c0,0.3-0.1,0.7-0.7,0.7
			C166.8,70.9,166.6,70.5,166.6,70.2"/>
	</g>
	<polyline points="173.9,72.6 170.3,77.4 173.9,77.4 173.9,78.1 168.9,78.1 168.9,77.7 172.5,72.8 169.6,72.8 169.6,72.1 
		173.9,72.1 	"/>
	<g>
		<path d="M177.1,74.9c-0.9,0.3-1.4,0.7-1.4,1.5c0,0.6,0.4,1,0.9,1c0.8,0,1.7-0.9,1.6-2.8L177.1,74.9z M177.7,77.4
			c-0.4,0.4-0.9,0.8-1.5,0.8c-1,0-1.7-0.7-1.7-1.8c0-1,0.9-1.7,2.1-2.1l1.4-0.4c-0.1-0.7-0.6-1.2-1.2-1.2c-0.7,0-1.1,0.3-1.6,0.6
			l-0.4-0.5c0.6-0.6,1.2-0.8,2-0.8c0.9,0,2.2,0.3,2.2,2v2.6c0,0.4,0.1,1,0.3,1.4h-1.2c-0.1-0.2-0.2-0.6-0.2-1"/>
		<path d="M182.2,72.1h1.6v0.6h-1.6v3.4c0,0.8,0.2,1.3,0.8,1.3c0.4,0,0.6-0.1,0.8-0.2l0.3,0.6c-0.4,0.2-0.8,0.4-1.2,0.4
			c-1.2,0-1.8-0.7-1.8-1.9v-3.6h-0.8v-0.6h0.8v-1.4l1.1-0.4"/>
		<path d="M186.1,78.1H185v-5.9h1.1V78.1z M184.9,70.2c0-0.3,0.2-0.6,0.7-0.6c0.4,0,0.7,0.3,0.7,0.6c0,0.3-0.1,0.7-0.7,0.7
			C185,70.9,184.9,70.5,184.9,70.2"/>
		<path d="M188.6,75c0,1.1,0.4,2.4,1.8,2.4c1.4,0,1.8-1.3,1.8-2.4c0-1.1-0.4-2.3-1.8-2.3C189,72.7,188.6,73.9,188.6,75 M187.4,75
			c0-1.9,1.4-3,2.9-3s2.9,1.1,2.9,3c0,1.8-1.2,3.2-2.9,3.2C188.6,78.2,187.4,76.9,187.4,75"/>
		<path d="M195.7,72.9c0.6-0.6,1.4-0.9,2-0.9c1.4,0,2.1,0.8,2.1,2.3v3.8h-1.1v-3.6c0-1.1-0.5-1.7-1.4-1.7c-0.8,0-1.6,0.6-1.6,1.7
			v3.6h-1.1v-5.9h1.1"/>
		<path d="M204.4,73.1c-0.4-0.3-0.8-0.4-1.1-0.4c-0.4,0-0.9,0.2-0.9,0.7s0.6,0.8,1.2,1.3c0.8,0.6,1.3,1.1,1.3,1.9c0,1-1,1.7-2.1,1.7
			c-0.7,0-1.4-0.3-1.8-0.8l0.5-0.6c0.4,0.3,0.8,0.6,1.3,0.6c0.5,0,1-0.3,1-0.8c0-0.7-0.6-1-1.2-1.4c-0.7-0.5-1.3-0.9-1.3-1.7
			c0-0.9,0.9-1.5,2-1.5c0.6,0,1.1,0.2,1.5,0.6"/>
		<path d="M95.3,108.7h0.4c0.5,0,0.9-0.2,0.9-0.7c0-0.3-0.2-0.7-0.9-0.7c-0.2,0-0.3,0-0.4,0V108.7z M95.3,110.8h-0.6V107
			c0.3-0.1,0.6-0.1,1.1-0.1c0.6,0,1,0.1,1.2,0.3s0.3,0.4,0.3,0.8c0,0.5-0.3,0.8-0.8,0.9v0c0.3,0.1,0.6,0.4,0.6,0.9
			c0.1,0.6,0.2,0.8,0.2,0.9h-0.6c-0.1-0.1-0.2-0.5-0.3-1c-0.1-0.5-0.3-0.7-0.8-0.7h-0.4V110.8z M95.9,105.9c-1.5,0-2.8,1.3-2.8,2.9
			c0,1.6,1.2,2.9,2.8,2.9c1.5,0,2.8-1.3,2.8-2.9S97.5,105.9,95.9,105.9L95.9,105.9z M95.9,105.4c1.9,0,3.4,1.5,3.4,3.4
			c0,1.9-1.5,3.4-3.4,3.4c-1.9,0-3.4-1.5-3.4-3.4C92.5,106.9,94.1,105.4,95.9,105.4"/>
	</g>
</g>
</svg>
