<?xml version="1.0" encoding="utf-8"?>
<!-- Generator: Adobe Illustrator 23.0.1, SVG Export Plug-In . SVG Version: 6.00 Build 0)  -->
<svg version="1.1" id="Layer_1" xmlns="http://www.w3.org/2000/svg" xmlns:xlink="http://www.w3.org/1999/xlink" x="0px" y="0px"
	 viewBox="0 0 144 144" style="enable-background:new 0 0 144 144;" xml:space="preserve">
<style type="text/css">
	.st0{fill:#EE7623;}
</style>
<g>
	<g>
		<g>
			<g>
				<g>
					<g>
						<rect x="27.7" y="39.7" class="st0" width="77.5" height="16.5"/>
					</g>
				</g>
			</g>
		</g>
		<g>
			<g>
				<g>
					<g>
						<g>
							<path d="M47.2,51.1c-2.8,0-5.1-2.3-5.1-5.1c0-0.7,0.1-1.3,0.4-2c0.3-0.6,0.9-0.9,1.5-0.6c0.6,0.3,0.9,0.9,0.6,1.5
								c-0.1,0.3-0.2,0.7-0.2,1.1c0,1.5,1.2,2.8,2.8,2.8c1.5,0,2.8-1.2,2.8-2.8c0-0.4-0.1-0.7-0.2-1.1c-0.3-0.6,0-1.3,0.6-1.5
								c0.6-0.3,1.3,0,1.5,0.6c0.3,0.6,0.4,1.3,0.4,2C52.3,48.8,50,51.1,47.2,51.1z"/>
						</g>
					</g>
				</g>
			</g>
		</g>
		<g>
			<g>
				<g>
					<g>
						<path d="M47.2,47.1c-0.6,0-1.2-0.5-1.2-1.2v-9.2c0-0.6,0.5-1.2,1.2-1.2c0.6,0,1.2,0.5,1.2,1.2v9.2
							C48.3,46.5,47.8,47.1,47.2,47.1z"/>
					</g>
				</g>
			</g>
		</g>
		<g>
			<g>
				<g>
					<g>
						<g>
							<path d="M85.6,51.1c-2.8,0-5.1-2.3-5.1-5.1c0-0.7,0.1-1.3,0.4-2c0.3-0.6,0.9-0.9,1.5-0.6c0.6,0.3,0.9,0.9,0.6,1.5
								c-0.1,0.3-0.2,0.7-0.2,1.1c0,1.5,1.2,2.8,2.8,2.8c1.5,0,2.8-1.2,2.8-2.8c0-0.4-0.1-0.7-0.2-1.1c-0.3-0.6,0-1.3,0.6-1.5
								c0.6-0.3,1.3,0,1.5,0.6c0.3,0.6,0.4,1.3,0.4,2C90.7,48.8,88.4,51.1,85.6,51.1z"/>
						</g>
					</g>
				</g>
			</g>
		</g>
		<g>
			<g>
				<g>
					<g>
						<path d="M85.6,47.1c-0.6,0-1.2-0.5-1.2-1.2v-9.2c0-0.6,0.5-1.2,1.2-1.2c0.6,0,1.2,0.5,1.2,1.2v9.2
							C86.8,46.5,86.3,47.1,85.6,47.1z"/>
					</g>
				</g>
			</g>
		</g>
		<g>
			<g>
				<g>
					<path d="M81.3,40.4H51.5c-0.6,0-1.2-0.5-1.2-1.2c0-0.6,0.5-1.2,1.2-1.2h29.8c0.6,0,1.2,0.5,1.2,1.2
						C82.4,39.9,81.9,40.4,81.3,40.4z"/>
				</g>
			</g>
		</g>
		<g>
			<g>
				<g>
					<path d="M85.6,76.9H41c-0.6,0-1.2-0.5-1.2-1.2s0.5-1.2,1.2-1.2h44.6c0.6,0,1.2,0.5,1.2,1.2S86.3,76.9,85.6,76.9z"/>
				</g>
			</g>
		</g>
		<g>
			<path d="M90,40.4h11.4c1.7,0,3,1.3,3,3v13.2c0.4,0,0.8-0.1,1.1-0.1c0.4,0,0.8,0,1.2,0.1V43.4c0-2.9-2.4-5.3-5.3-5.3H90
				c-0.6,0-1.2,0.5-1.2,1.2C88.8,39.9,89.4,40.4,90,40.4z"/>
			<path d="M105.5,95.1c-0.4,0-0.8,0-1.1-0.1v6.8c0,1.7-1.3,3-3,3h-70c-1.7,0-3-1.3-3-3v-44V43.4c0-1.7,1.3-3,3-3h11.4
				c0.6,0,1.2-0.5,1.2-1.2c0-0.6-0.5-1.2-1.2-1.2H31.4c-2.9,0-5.3,2.4-5.3,5.3v14.4v44c0,2.9,2.4,5.3,5.3,5.3h70
				c2.9,0,5.3-2.4,5.3-5.3V95C106.3,95,105.9,95.1,105.5,95.1z"/>
		</g>
		<path d="M105.5,57.5c4.9,0,9.5,1.9,12.9,5.4c3.5,3.5,5.4,8,5.4,12.9c0,4.9-1.9,9.5-5.4,12.9c-3.5,3.5-8,5.4-12.9,5.4
			c-4.9,0-9.5-1.9-12.9-5.4c-3.5-3.5-5.4-8-5.4-12.9c0-4.9,1.9-9.5,5.4-12.9C96,59.4,100.6,57.5,105.5,57.5 M105.5,55.5
			c-5.6,0-10.7,2.3-14.4,5.9c-3.7,3.7-6,8.8-6,14.4c0,5.6,2.3,10.7,6,14.4c3.7,3.7,8.8,6,14.4,6c5.6,0,10.7-2.3,14.4-6
			c3.7-3.7,5.9-8.8,5.9-14.4c0-5.6-2.3-10.7-5.9-14.4C116.2,57.7,111.1,55.5,105.5,55.5L105.5,55.5z"/>
		<path d="M107,64.3v2.3c1,0.1,1.9,0.4,2.6,0.9c0.7,0.5,1.3,1.2,1.9,2.1l-2.6,1.3c-0.8-1.2-1.8-1.9-3.1-1.9c-0.8,0-1.4,0.2-1.9,0.6
			c-0.5,0.4-0.8,0.9-0.8,1.5c0,0.5,0.2,1,0.6,1.4c0.4,0.4,1.2,0.8,2.5,1.3c1.1,0.4,2,0.8,2.7,1.2c0.7,0.4,1.2,0.7,1.6,1.1
			c1,0.9,1.5,2.1,1.5,3.4c0,1.3-0.5,2.5-1.4,3.5c-0.9,1-2.1,1.7-3.6,2v2.4h-2.3V85c-1.7-0.2-3.1-0.8-4-1.6c-0.9-0.8-1.6-2-2-3.7
			l2.9-0.5c0.4,1.2,0.9,2,1.5,2.5c0.6,0.5,1.4,0.7,2.4,0.7c1,0,1.8-0.3,2.5-0.8c0.6-0.5,1-1.2,1-2.1c0-0.8-0.3-1.4-0.8-1.8
			c-0.3-0.2-0.7-0.5-1.2-0.8c-0.5-0.3-1.2-0.6-2.1-0.9c-1.7-0.7-2.9-1.3-3.4-1.9c-0.9-0.8-1.3-1.9-1.3-3c0-0.6,0.1-1.1,0.3-1.6
			s0.5-0.9,0.9-1.3c0.4-0.4,0.9-0.7,1.4-1s1.2-0.5,1.9-0.7v-2.3H107z"/>
		<g>
			<g>
				<g>
					<g>
						<path d="M58,70.9c-0.6,0-1.2-0.5-1.2-1.2V59.4c0-0.6,0.5-1.2,1.2-1.2s1.2,0.5,1.2,1.2v10.3C59.1,70.4,58.6,70.9,58,70.9z"/>
					</g>
				</g>
			</g>
		</g>
		<g>
			<g>
				<g>
					<g>
						<path d="M68.8,70.9c-0.6,0-1.2-0.5-1.2-1.2V59.4c0-0.6,0.5-1.2,1.2-1.2c0.6,0,1.2,0.5,1.2,1.2v10.3
							C69.9,70.4,69.4,70.9,68.8,70.9z"/>
					</g>
				</g>
			</g>
		</g>
		<g>
			<g>
				<g>
					<g>
						<path d="M79.6,70.9c-0.6,0-1.2-0.5-1.2-1.2V59.4c0-0.6,0.5-1.2,1.2-1.2c0.6,0,1.2,0.5,1.2,1.2v10.3
							C80.8,70.4,80.2,70.9,79.6,70.9z"/>
					</g>
				</g>
			</g>
		</g>
		<g>
			<g>
				<g>
					<g>
						<path d="M58,94.7c-0.6,0-1.2-0.5-1.2-1.2V83.1c0-0.6,0.5-1.2,1.2-1.2s1.2,0.5,1.2,1.2v10.3C59.1,94.1,58.6,94.7,58,94.7z"/>
					</g>
				</g>
			</g>
		</g>
		<g>
			<g>
				<g>
					<g>
						<path d="M47.2,70.9c-0.6,0-1.2-0.5-1.2-1.2V59.4c0-0.6,0.5-1.2,1.2-1.2s1.2,0.5,1.2,1.2v10.3C48.3,70.4,47.8,70.9,47.2,70.9z"
							/>
					</g>
				</g>
			</g>
		</g>
		<g>
			<g>
				<g>
					<g>
						<path d="M47.2,94.7c-0.6,0-1.2-0.5-1.2-1.2V83.1c0-0.6,0.5-1.2,1.2-1.2s1.2,0.5,1.2,1.2v10.3C48.3,94.1,47.8,94.7,47.2,94.7z"
							/>
					</g>
				</g>
			</g>
		</g>
		<g>
			<g>
				<g>
					<g>
						<path d="M68.8,94.7c-0.6,0-1.2-0.5-1.2-1.2V83.1c0-0.6,0.5-1.2,1.2-1.2c0.6,0,1.2,0.5,1.2,1.2v10.3
							C69.9,94.1,69.4,94.7,68.8,94.7z"/>
					</g>
				</g>
			</g>
		</g>
		<g>
			<g>
				<g>
					<g>
						<path d="M79.6,94.7c-0.6,0-1.2-0.5-1.2-1.2V83.1c0-0.6,0.5-1.2,1.2-1.2c0.6,0,1.2,0.5,1.2,1.2v10.3
							C80.8,94.1,80.2,94.7,79.6,94.7z"/>
					</g>
				</g>
			</g>
		</g>
	</g>
</g>
</svg>
