<?xml version="1.0" encoding="utf-8"?>
<!-- Generator: Adobe Illustrator 23.0.1, SVG Export Plug-In . SVG Version: 6.00 Build 0)  -->
<svg version="1.1" id="Layer_1" xmlns="http://www.w3.org/2000/svg" xmlns:xlink="http://www.w3.org/1999/xlink" x="0px" y="0px"
	 viewBox="0 0 144 144" style="enable-background:new 0 0 144 144;" xml:space="preserve">
<style type="text/css">
	.st0{fill:#231F20;}
	.st1{fill:#EE7623;}
</style>
<g>
	<g>
		<g>
			<g>
				<g>
					<g>
						<path class="st0" d="M81.8,38.5h-2.4V38c0-3.6-2.9-6.5-6.5-6.5c-3.6,0-6.5,2.9-6.5,6.5v0.5h-2.4V38c0-5,4-9,9-9c5,0,9,4,9,9
							V38.5z"/>
					</g>
				</g>
			</g>
		</g>
		<g>
			<g>
				<g>
					<g>
						<path class="st0" d="M85.4,61c-2,0-3.7-1.5-4-3.5l0-0.3c-0.6-4.3-4.2-7.5-8.5-7.5c-4.3,0-8,3.2-8.5,7.5l0,0.3
							c-0.3,2-2,3.5-4,3.5h-1.1c-2.2,0-4-1.8-4-4V40.6c0-1.9,1.5-3.4,3.4-3.4H86c1.9,0,3.4,1.5,3.4,3.4V57
							C89.4,59.2,87.6,61,85.4,61z M72.8,47.3c5.5,0,10.2,4.1,10.9,9.6l0,0.3c0.1,0.8,0.8,1.4,1.6,1.4c0.9,0,1.6-0.7,1.6-1.6V40.6
							c0-0.5-0.4-0.9-0.9-0.9H58.5c-0.5,0-0.9,0.4-0.9,0.9V57c0,0.9,0.7,1.6,1.6,1.6h1.1c0.8,0,1.5-0.6,1.6-1.4l0-0.3
							C62.6,51.4,67.3,47.3,72.8,47.3z"/>
					</g>
				</g>
			</g>
		</g>
		<g>
			<g>
				<g>
					<g>
						<path class="st0" d="M113.2,113.2H30.7c-2.1,0-3.8-1.7-3.8-3.8V47.6c0-2.1,1.7-3.8,3.8-3.8h26.5v2.4H30.7
							c-0.7,0-1.4,0.6-1.4,1.4v61.8c0,0.7,0.6,1.4,1.4,1.4h82.5c0.7,0,1.4-0.6,1.4-1.4V47.6c0-0.7-0.6-1.4-1.4-1.4H87.3v-2.4h25.9
							c2.1,0,3.8,1.7,3.8,3.8v61.8C117,111.5,115.3,113.2,113.2,113.2z"/>
					</g>
				</g>
			</g>
		</g>
		<g>
			<g>
				<g>
					<g>
						<path class="st0" d="M105.8,86H76.2c-0.7,0-1.2-0.5-1.2-1.2s0.5-1.2,1.2-1.2h29.6c0.7,0,1.2,0.5,1.2,1.2S106.4,86,105.8,86z"
							/>
					</g>
				</g>
			</g>
		</g>
		<g>
			<g>
				<g>
					<g>
						<path class="st0" d="M105.8,98.1H76.2c-0.7,0-1.2-0.5-1.2-1.2s0.5-1.2,1.2-1.2h29.6c0.7,0,1.2,0.5,1.2,1.2
							S106.4,98.1,105.8,98.1z"/>
					</g>
				</g>
			</g>
		</g>
		<g>
			<g>
				<g>
					<g>
						<path class="st0" d="M105.8,74H76.2c-0.7,0-1.2-0.5-1.2-1.2s0.5-1.2,1.2-1.2h29.6c0.7,0,1.2,0.5,1.2,1.2S106.4,74,105.8,74z"
							/>
					</g>
				</g>
			</g>
		</g>
		<path class="st1" d="M68.9,97.9l-0.4-3c-0.2-1.5-1.3-2.8-2.9-3.6l-7.6-3.1c-1.7-0.7-1.8-1.1-1.8-2.4v-0.9c2.2,0,3.7-0.3,4.6-0.6
			c0.5-0.2,0.8-0.8,0.5-1.3c-0.8-1.3-2-4.2-2-8.5c0-4.8-3.3-8-7.1-8c-3.7,0-7.1,3.2-7.1,8c0,4.3-1.3,7.2-2,8.5
			c-0.3,0.5,0,1.1,0.5,1.3c0.9,0.3,2.4,0.6,4.6,0.6c0,0.4,0,0.8,0,0.9c0,1.3,0,1.6-1.8,2.4l-7.6,3.1c-1.6,0.8-2.7,2.1-2.9,3.6
			l-0.4,3H68.9z"/>
	</g>
</g>
</svg>
