<?xml version="1.0" encoding="utf-8"?>
<!-- Generator: Adobe Illustrator 23.0.1, SVG Export Plug-In . SVG Version: 6.00 Build 0)  -->
<svg version="1.1" id="Layer_1" xmlns="http://www.w3.org/2000/svg" xmlns:xlink="http://www.w3.org/1999/xlink" x="0px" y="0px"
	 viewBox="0 0 144 144" style="enable-background:new 0 0 144 144;" xml:space="preserve">
<style type="text/css">
	.st0{fill:#6B6B6B;}
	.st1{fill:#EE7623;}
</style>
<g>
	<g>
		<g>
			<g>
				<path class="st0" d="M88.2,77.3c-0.2-0.3-0.4-0.6-0.6-1"/>
			</g>
		</g>
	</g>
	<g>
		<g>
			<path class="st1" d="M85.3,96.2l-0.7-4.8c-0.4-2.4-2.1-4.4-5-5.7l-12.9-4.8c-2.9-1.2-3-1.7-3-3.7c0-0.3,0-2.7,0-2.7
				c1.1-1.1,1.8-5.6,1.8-5.6c1,0.2,2.8-1.4,3.4-3.6c0.6-2.2-0.4-4.1-1.4-4.4c-0.1,0,0.3-4.8,0.3-6.9c0-3.2-1-5.3-4.2-5.3
				c-0.8-1.3-2.2-2.1-6-2.1c-4,0-5.8,2.1-9.6,2.1c-1.7,0-2,2.5-2,5.2c0,2.8,0.4,7,0.3,7c-1,0.2-1.9,2.2-1.4,4.4
				c0.6,2.2,2.4,3.8,3.4,3.6c0,0,0.6,4.5,1.8,5.6c0,0,0,2.4,0,2.7c0,2.1,0,2.6-3,3.7l-9,4.9c-2.8,1.3-4.5,3.3-4.9,5.6l-0.7,4.8"/>
		</g>
		<g>
			<g>
				<path d="M88.2,77.3c-0.2-0.3-0.4-0.6-0.6-1"/>
				<path class="st1" d="M69.2,96.9l0.6-2.9c0.3-2.4,1.8-3.2,3.5-4c0.3-0.2,0.7-0.3,1.1-0.5l7.8-4.6c1.8-0.8,1.9-2.1,1.9-4.1v-0.2
					c-2.8-0.1-5.8-0.5-7-1c-0.7-0.2-1.2-0.8-1.4-1.6c-0.2-0.7-0.2-1.5,0.2-2.2c0.2-0.3,0.4-0.6,0.6-1c1.3-2.2,3.4-5.9,3.4-11.1
					c0-7.4,4.7-13.3,10.8-13.3c6,0,10.8,5.8,10.8,13.3c0,5.2,2.1,8.9,3.4,11.1c0.2,0.4,0.4,0.7,0.6,1c0.3,0.7,0.4,1.4,0.2,2.2
					c-0.2,0.8-0.8,1.3-1.4,1.6c-1.2,0.4-4.1,0.9-7,1v0.2c0,2,0.1,3.3,1.8,4l7.8,4.6c0.4,0.2,0.7,0.4,1.1,0.5
					c1.7,0.9,3.2,1.6,3.6,4.1l0.6,2.9"/>
			</g>
		</g>
	</g>
</g>
<g>
	<g>
		<path d="M88.4,77.1c-0.2-0.3-0.4-0.6-0.7-1"/>
	</g>
	<path d="M34.3,96.6V42.9c0-0.7,0.6-1.3,1.3-1.3h73.9c0.7,0,1.3,0.6,1.3,1.3v53.7h2.4V42.9c0-2-1.7-3.7-3.7-3.7H35.6
		c-2,0-3.7,1.7-3.7,3.7v53.7C31.9,96.6,34.3,96.6,34.3,96.6z"/>
	<path d="M119.4,96.1H25.6c-2,0-3.7,1.7-3.7,3.7v2.3c0,2,1.7,3.7,3.7,3.7h93.8c2,0,3.7-1.7,3.7-3.7v-2.3
		C123.1,97.8,121.5,96.1,119.4,96.1z M120.8,102.1c0,0.7-0.6,1.3-1.3,1.3H25.6c-0.7,0-1.3-0.6-1.3-1.3v-2.3c0-0.7,0.6-1.3,1.3-1.3
		h93.8c0.7,0,1.3,0.6,1.3,1.3C120.8,99.8,120.8,102.1,120.8,102.1z"/>
</g>
</svg>
