<?xml version="1.0" encoding="utf-8"?>
<!-- Generator: Adobe Illustrator 23.0.1, SVG Export Plug-In . SVG Version: 6.00 Build 0)  -->
<svg version="1.1" id="Layer_1" xmlns="http://www.w3.org/2000/svg" xmlns:xlink="http://www.w3.org/1999/xlink" x="0px" y="0px"
	 viewBox="0 0 144 144" style="enable-background:new 0 0 144 144;" xml:space="preserve">
<style type="text/css">
	.st0{fill:#EE7623;}
	.st1{fill:#231F20;}
</style>
<g>
	<g>
		<g>
			<g>
				<g>
					<g>
						<rect x="24.9" y="73.5" class="st0" width="67" height="10"/>
					</g>
				</g>
			</g>
		</g>
		<g>
			<g>
				<g>
					<g>
						<rect x="91.1" y="69.4" class="st0" width="26" height="28.1"/>
					</g>
				</g>
			</g>
		</g>
		<g>
			<g>
				<g>
					<g>
						<g>
							<path class="st1" d="M81,106.7H48.8c-0.9,0-1.7-0.6-1.9-1.4c-0.2-0.8,0.2-1.5,0.9-1.9c2.1-1.1,3.6-2.8,4-4.7
								c0.5-2.7,0.3-5.6,0.3-5.6c0-0.3,0.1-0.6,0.3-0.8c0.2-0.2,0.5-0.4,0.8-0.4h23.3c0.3,0,0.6,0.1,0.8,0.4
								c0.2,0.2,0.3,0.5,0.3,0.8c0,0-0.3,2.9,0.3,5.6c0.4,1.9,1.8,3.6,4,4.7c0.7,0.4,1.1,1.1,0.9,1.9
								C82.7,106.2,81.9,106.7,81,106.7z M50.4,104.5h29.1c-1.9-1.4-3.2-3.3-3.6-5.3c-0.4-1.9-0.4-3.8-0.4-5h-21c0,1.2,0,3.1-0.4,5
								C53.6,101.2,52.3,103.1,50.4,104.5z"/>
						</g>
					</g>
				</g>
			</g>
			<g>
				<g>
					<g>
						<g>
							<path class="st1" d="M64.9,90.1c-1,0-1.9-0.8-1.9-1.9c0-1,0.8-1.9,1.9-1.9c1,0,1.9,0.8,1.9,1.9
								C66.8,89.3,65.9,90.1,64.9,90.1z"/>
						</g>
					</g>
				</g>
			</g>
			<g>
				<g>
					<g>
						<g>
							<path class="st1" d="M91.9,94.1h-63c-2.8,0-5.1-2.3-5.1-5.1v-5.7c0-0.6,0.5-1.1,1.1-1.1h15.5c0.6,0,1.1,0.5,1.1,1.1
								c0,0.6-0.5,1.1-1.1,1.1H26v4.6c0,1.6,1.3,2.8,2.8,2.8h63c0.6,0,1.1,0.5,1.1,1.1C93,93.7,92.5,94.1,91.9,94.1z"/>
						</g>
					</g>
				</g>
			</g>
			<g>
				<g>
					<g>
						<g>
							<path class="st1" d="M91.8,84.5H24.9c-0.6,0-1.1-0.5-1.1-1.1V42.7c0-3,2.4-5.4,5.4-5.4h71.5c3,0,5.4,2.4,5.4,5.4v19.9
								c0,0.6-0.5,1.1-1.1,1.1c-0.6,0-1.1-0.5-1.1-1.1V42.7c0-1.8-1.4-3.2-3.2-3.2H29.2c-1.8,0-3.2,1.4-3.2,3.2v39.6h65.8
								c0.6,0,1.1,0.5,1.1,1.1C92.9,84,92.4,84.5,91.8,84.5z"/>
						</g>
					</g>
				</g>
			</g>
		</g>
		<g id="XMLID_8_">
			<g>
				<g>
					<g>
						<rect x="92.8" y="95.9" class="st1" width="24.3" height="2.2"/>
					</g>
				</g>
			</g>
		</g>
		<g id="XMLID_7_">
			<g>
				<g>
					<g>
						<path class="st1" d="M116,106.7H93.9c-1.7,0-3.1-1.4-3.1-3.1v-39c0-1.7,1.4-3.1,3.1-3.1H116c1.7,0,3.1,1.4,3.1,3.1v39
							C119.1,105.3,117.7,106.7,116,106.7z M93.9,63.7c-0.5,0-0.9,0.4-0.9,0.9v39c0,0.5,0.4,0.9,0.9,0.9H116c0.5,0,0.9-0.4,0.9-0.9
							v-39c0-0.5-0.4-0.9-0.9-0.9H93.9z"/>
					</g>
				</g>
			</g>
		</g>
		<g id="XMLID_6_">
			<g>
				<g>
					<g>
						<path class="st1" d="M104.9,103.2c-1,0-1.8-0.8-1.8-1.8c0-1,0.8-1.8,1.8-1.8c1,0,1.8,0.8,1.8,1.8
							C106.7,102.4,105.9,103.2,104.9,103.2z"/>
					</g>
				</g>
			</g>
		</g>
		<g id="XMLID_5_">
			<g>
				<g>
					<g>
						<path class="st1" d="M107.5,68h-5.2c-0.6,0-1.1-0.5-1.1-1.1c0-0.6,0.5-1.1,1.1-1.1h5.2c0.6,0,1.1,0.5,1.1,1.1
							C108.6,67.5,108.1,68,107.5,68z"/>
					</g>
				</g>
			</g>
		</g>
	</g>
</g>
</svg>
